<svg width="134" height="134" viewBox="0 0 134 134" fill="none" xmlns="http://www.w3.org/2000/svg">
<g clip-path="url(#clip0)">
<path d="M77.9953 134C73.5481 134 69.3677 132.274 66.2138 129.137C63.0415 125.98 61.2953 121.777 61.2953 117.303C61.2953 115.505 61.5744 113.757 62.1286 112.081H36.8471C34.6736 112.081 32.9111 110.319 32.9111 108.145V82.8616C30.9881 83.4924 28.9475 83.7735 26.909 83.6784C22.6223 83.4811 18.6137 81.645 15.6234 78.5074C12.6351 75.3719 10.9901 71.2826 10.9922 66.9918C10.9973 57.7867 18.489 50.2991 27.6931 50.2991C29.4894 50.2991 31.2365 50.5782 32.9111 51.1313V25.8549C32.9111 23.6815 34.6736 21.9189 36.8471 21.9189H62.1326C61.507 20.0133 61.2248 17.9921 61.3107 15.9751C61.4927 11.6864 63.3155 7.67163 66.4428 4.67107C69.5671 1.67255 73.6513 0.0143127 77.9421 0H77.9973C82.4475 0 86.631 1.72878 89.7838 4.87144C92.95 8.02638 94.6931 12.2272 94.6931 16.6968C94.6931 18.4951 94.414 20.2444 93.8609 21.9189H119.141C121.315 21.9189 123.077 23.6815 123.077 25.8549V53.2271C123.077 55.4588 121.951 57.4994 120.063 58.6863C118.166 59.8794 115.824 60.0103 113.798 59.036C112.603 58.4624 111.32 58.1711 109.983 58.1711C107.623 58.1711 105.404 59.0912 103.738 60.7617C102.07 62.4332 101.153 64.6548 101.158 67.0184C101.168 71.667 104.947 75.6132 109.582 75.8156C111.064 75.8811 112.481 75.5938 113.796 74.962C115.824 73.9887 118.168 74.1206 120.067 75.3147C121.952 76.5006 123.077 78.5402 123.077 80.7709V108.145C123.077 110.319 121.315 112.081 119.141 112.081H93.8568C94.4794 113.98 94.7616 115.994 94.6788 118.006C94.5019 122.292 92.6852 126.308 89.564 129.312C86.4459 132.314 82.3668 133.979 78.077 134C78.0505 134 78.0229 134 77.9953 134ZM40.7831 104.209H64.2233C66.4561 104.209 68.4967 105.336 69.6836 107.224C70.8767 109.121 71.0076 111.465 70.0333 113.49C69.4587 114.683 69.1674 115.966 69.1674 117.303C69.1674 119.667 70.0905 121.888 71.7672 123.557C73.4336 125.216 75.6449 126.128 77.9963 126.128H78.0402C82.6868 126.105 86.6217 122.317 86.8129 117.681C86.8732 116.209 86.586 114.8 85.9593 113.494C84.985 111.464 85.1158 109.118 86.311 107.219C87.4969 105.335 89.5364 104.209 91.7662 104.209H115.205V82.8616C113.294 83.4883 111.265 83.7694 109.239 83.6805C104.952 83.4934 100.941 81.6665 97.9442 78.5371C94.9487 75.4098 93.2956 71.3245 93.2864 67.0348C93.2772 62.5651 95.01 58.3623 98.166 55.2012C101.32 52.0401 105.517 50.2991 109.983 50.2991C111.78 50.2991 113.53 50.5782 115.205 51.1323V29.791H91.7662C89.5344 29.791 87.4938 28.6643 86.3069 26.7771C85.1138 24.8786 84.9829 22.5375 85.9572 20.5122C86.5308 19.3191 86.8211 18.0361 86.8211 16.6968C86.8211 14.3342 85.9 12.1147 84.2264 10.4473C82.5539 8.77882 80.3272 7.87201 77.9677 7.87201C73.317 7.88734 69.3728 11.672 69.1755 16.3083C69.1132 17.7826 69.4005 19.1954 70.0302 20.5061C71.0055 22.5354 70.8747 24.8807 69.6806 26.7802C68.4936 28.6654 66.4541 29.791 64.2243 29.791H40.7831V53.2271C40.7831 55.4588 39.6565 57.4994 37.7693 58.6853C35.8708 59.8794 33.5286 60.0092 31.5034 59.036C30.3103 58.4614 29.0283 58.1711 27.6931 58.1711C22.8278 58.1711 18.8673 62.1296 18.8642 66.9959C18.8622 71.6445 22.6336 75.6009 27.2709 75.8146C28.7584 75.8821 30.1815 75.5958 31.5024 74.962C33.5296 73.9877 35.8729 74.1196 37.7713 75.3126C39.6575 76.4996 40.7831 78.5391 40.7831 80.7699V104.209Z" fill="#E0E0E0"/>
</g>
<defs>
<clipPath id="clip0">
<rect width="134" height="134" fill="white"/>
</clipPath>
</defs>
</svg>
