<svg width="134" height="134" viewBox="0 0 134 134" fill="none" xmlns="http://www.w3.org/2000/svg">
<g clip-path="url(#clip0)">
<path d="M88.0244 0H29.1551C28.1143 0 27.1155 0.414047 26.3794 1.15013L1.15013 26.3794C0.414047 27.1155 0 28.1143 0 29.1551V121.664C0 128.466 5.53392 134 12.3355 134H88.0244C91.3214 134 94.4202 132.716 96.747 130.386C99.0769 128.057 100.36 124.959 100.36 121.664V12.3355C100.36 9.04054 99.0769 5.94286 96.749 3.61499C94.4202 1.28406 91.3214 0 88.0244 0V0ZM29.4352 9.19798V24.9502C29.4352 27.4232 27.4232 29.4342 24.9512 29.4342H9.19798L29.4352 9.19798ZM92.5094 121.664C92.5094 122.862 92.0422 123.987 91.1936 124.836C90.3482 125.682 89.2226 126.148 88.0254 126.148H12.3355C9.86353 126.148 7.85156 124.136 7.85156 121.664V37.2867H24.9502C31.7518 37.2867 37.2857 31.7528 37.2857 24.9512V7.85156H88.0244C89.2226 7.85156 90.3482 8.31775 91.1957 9.16629C92.0422 10.0128 92.5084 11.1384 92.5084 12.3355V121.664H92.5094Z" fill="#E0E0E0"/>
<path d="M75.4088 50.4595H24.9492C22.7819 50.4595 21.0234 52.2169 21.0234 54.3853C21.0234 56.5536 22.7819 58.311 24.9492 58.311H75.4088C77.5772 58.311 79.3346 56.5536 79.3346 54.3853C79.3346 52.2169 77.5772 50.4595 75.4088 50.4595Z" fill="#E0E0E0"/>
<path d="M75.4088 67.2791H24.9492C22.7819 67.2791 21.0234 69.0365 21.0234 71.2048C21.0234 73.3732 22.7819 75.1306 24.9492 75.1306H75.4088C77.5772 75.1306 79.3346 73.3732 79.3346 71.2048C79.3346 69.0365 77.5772 67.2791 75.4088 67.2791Z" fill="#E0E0E0"/>
<path d="M75.4088 84.0986H24.9492C22.7819 84.0986 21.0234 85.8571 21.0234 88.0244C21.0234 90.1928 22.7819 91.9502 24.9492 91.9502H75.4088C77.5772 91.9502 79.3346 90.1928 79.3346 88.0244C79.3346 85.8571 77.5772 84.0986 75.4088 84.0986Z" fill="#E0E0E0"/>
<path d="M50.1795 100.919H24.9492C22.7819 100.919 21.0234 102.677 21.0234 104.845C21.0234 107.012 22.7819 108.771 24.9492 108.771H50.1795C52.3469 108.771 54.1053 107.012 54.1053 104.845C54.1053 102.677 52.3479 100.919 50.1795 100.919Z" fill="#E0E0E0"/>
<path d="M121.664 0C114.862 0 109.328 5.53392 109.328 12.3355V94.4498C109.328 107.359 112.38 120.284 118.153 131.83C118.817 133.16 120.177 134 121.664 134C123.151 134 124.51 133.16 125.175 131.83C130.948 120.284 133.999 107.358 133.999 94.4498V12.3355C133.999 5.53392 128.465 0 121.664 0V0ZM121.664 7.85156C124.136 7.85156 126.148 9.86353 126.148 12.3355V21.0244H117.18V12.3355C117.18 9.86353 119.191 7.85156 121.664 7.85156ZM126.148 92.5094H117.18V28.876H126.148V92.5094ZM121.664 120.104C119.382 113.751 117.951 107.088 117.418 100.361H125.909C125.377 107.089 123.945 113.751 121.664 120.104Z" fill="#E0E0E0"/>
</g>
<defs>
<clipPath id="clip0">
<rect width="134" height="134" fill="white"/>
</clipPath>
</defs>
</svg>
