<svg width="134" height="134" viewBox="0 0 134 134" fill="none" xmlns="http://www.w3.org/2000/svg">
<path d="M122.223 0H11.7773C5.28332 0 0 5.28332 0 11.7773V122.223C0 128.717 5.28332 134 11.7773 134H122.223C128.717 134 134 128.717 134 122.223V11.7773C134 5.28332 128.717 0 122.223 0ZM7.85156 11.7773C7.85156 9.61267 9.61267 7.85156 11.7773 7.85156H63.0742V24.4867C63.0742 25.761 63.6927 26.9562 64.7333 27.6919C65.7741 28.4279 67.1065 28.6124 68.3083 28.1882C69.145 27.8924 70.0257 27.7424 70.9258 27.7424C75.2551 27.7424 78.7773 31.2647 78.7773 35.594C78.7773 39.9234 75.2551 43.4456 70.9258 43.4456C70.0257 43.4456 69.145 43.2956 68.3083 42.9999C67.1065 42.5751 65.7738 42.7601 64.7333 43.4961C63.6927 44.232 63.0742 45.427 63.0742 46.7014V63.0742H51.2969C51.2969 54.4155 44.2525 47.3711 35.5938 47.3711C26.935 47.3711 19.8906 54.4155 19.8906 63.0742H7.85156V11.7773ZM63.0742 126.148H11.7773C9.61267 126.148 7.85156 124.387 7.85156 122.223V70.9258H24.4867C25.761 70.9258 26.9562 70.3073 27.6919 69.2667C28.4276 68.2262 28.6129 66.8935 28.1882 65.6917C27.8922 64.855 27.7422 63.974 27.7422 63.0742C27.7422 58.7449 31.2644 55.2227 35.5938 55.2227C39.9231 55.2227 43.4453 58.7449 43.4453 63.0742C43.4453 63.974 43.2953 64.855 42.9996 65.6917C42.5748 66.8932 42.7599 68.2262 43.4958 69.2667C44.2318 70.3073 45.4265 70.9258 46.7008 70.9258H63.0742V82.7031C54.4155 82.7031 47.3711 89.7475 47.3711 98.4062C47.3711 107.065 54.4155 114.109 63.0742 114.109V126.148ZM126.148 122.223C126.148 124.387 124.387 126.148 122.223 126.148H70.9258V109.513C70.9258 108.239 70.3073 107.044 69.2667 106.308C68.2259 105.572 66.8935 105.387 65.6917 105.812C64.855 106.108 63.9743 106.258 63.0742 106.258C58.7449 106.258 55.2227 102.736 55.2227 98.4062C55.2227 94.0769 58.7449 90.5547 63.0742 90.5547C63.9743 90.5547 64.855 90.7047 65.6917 91.0004C66.8935 91.4254 68.2264 91.2401 69.2667 90.5042C70.3073 89.7682 70.9258 88.5732 70.9258 87.2989V70.9258H82.7031C82.7031 79.5845 89.7475 86.6289 98.4062 86.6289C107.065 86.6289 114.109 79.5845 114.109 70.9258H126.148V122.223ZM126.148 63.0742H109.513C108.239 63.0742 107.044 63.6927 106.308 64.7333C105.572 65.7738 105.387 67.1065 105.812 68.3083C106.108 69.1453 106.258 70.026 106.258 70.9258C106.258 75.2551 102.735 78.7773 98.406 78.7773C94.0766 78.7773 90.5544 75.2551 90.5544 70.9258C90.5544 70.026 90.7044 69.145 91.0001 68.3083C91.4249 67.1068 91.2399 65.7738 90.5039 64.7333C89.768 63.6927 88.5735 63.0742 87.2992 63.0742H70.9258V51.2969C79.5845 51.2969 86.6289 44.2525 86.6289 35.5938C86.6289 26.935 79.5845 19.8906 70.9258 19.8906V7.85156H122.223C124.387 7.85156 126.148 9.61267 126.148 11.7773V63.0742Z" fill="#E0E0E0"/>
</svg>
