<svg width="134" height="134" viewBox="0 0 134 134" fill="none" xmlns="http://www.w3.org/2000/svg">
<path d="M118.035 111.121V98.1445C118.035 91.6505 112.752 86.3672 106.258 86.3672H70.9258V78.5156H90.5547C92.7228 78.5156 94.4805 76.7579 94.4805 74.5898V58.8867C94.4805 48.329 88.4947 39.1442 79.7397 34.5437C83.9515 30.9409 86.6289 25.5932 86.6289 19.6289C86.6289 8.80553 77.8234 0 67 0C56.1766 0 47.3711 8.80553 47.3711 19.6289C47.3711 25.5932 50.0485 30.9409 54.2603 34.5437C45.5053 39.1442 39.5195 48.329 39.5195 58.8867V74.5898C39.5195 76.7579 41.2772 78.5156 43.4453 78.5156H63.0742V86.3672H27.7422C21.2482 86.3672 15.9648 91.6505 15.9648 98.1445V111.121C11.3955 112.741 8.11328 117.105 8.11328 122.223C8.11328 128.717 13.3966 134 19.8906 134C26.3847 134 31.668 128.717 31.668 122.223C31.668 117.105 28.3858 112.741 23.8164 111.121V98.1445C23.8164 95.9799 25.5775 94.2188 27.7422 94.2188H47.3711V111.121C42.8017 112.741 39.5195 117.105 39.5195 122.223C39.5195 128.717 44.8028 134 51.2969 134C57.7909 134 63.0742 128.717 63.0742 122.223C63.0742 117.105 59.792 112.741 55.2227 111.121V94.2188H78.7773V111.121C74.208 112.741 70.9258 117.105 70.9258 122.223C70.9258 128.717 76.2091 134 82.7031 134C89.1972 134 94.4805 128.717 94.4805 122.223C94.4805 117.105 91.1983 112.741 86.6289 111.121V94.2188H106.258C108.422 94.2188 110.184 95.9799 110.184 98.1445V111.121C105.614 112.741 102.332 117.105 102.332 122.223C102.332 128.717 107.615 134 114.109 134C120.603 134 125.887 128.717 125.887 122.223C125.887 117.105 122.605 112.741 118.035 111.121ZM19.8906 126.148C17.7259 126.148 15.9648 124.387 15.9648 122.223C15.9648 120.058 17.7259 118.297 19.8906 118.297C22.0553 118.297 23.8164 120.058 23.8164 122.223C23.8164 124.387 22.0553 126.148 19.8906 126.148ZM51.2969 126.148C49.1322 126.148 47.3711 124.387 47.3711 122.223C47.3711 120.058 49.1322 118.297 51.2969 118.297C53.4616 118.297 55.2227 120.058 55.2227 122.223C55.2227 124.387 53.4616 126.148 51.2969 126.148ZM67 7.85156C73.494 7.85156 78.7773 13.1349 78.7773 19.6289C78.7773 26.1229 73.494 31.4062 67 31.4062C60.506 31.4062 55.2227 26.1229 55.2227 19.6289C55.2227 13.1349 60.506 7.85156 67 7.85156ZM47.3711 70.6641V58.8867C47.3711 49.4075 54.1255 41.4767 63.0742 39.6527V58.8867C63.0742 61.0548 64.8319 62.8125 67 62.8125C69.1681 62.8125 70.9258 61.0548 70.9258 58.8867V39.6527C79.8745 41.4764 86.6289 49.4073 86.6289 58.8867V70.6641H47.3711ZM82.7031 126.148C80.5385 126.148 78.7773 124.387 78.7773 122.223C78.7773 120.058 80.5385 118.297 82.7031 118.297C84.8678 118.297 86.6289 120.058 86.6289 122.223C86.6289 124.387 84.8678 126.148 82.7031 126.148ZM114.109 126.148C111.945 126.148 110.184 124.387 110.184 122.223C110.184 120.058 111.945 118.297 114.109 118.297C116.274 118.297 118.035 120.058 118.035 122.223C118.035 124.387 116.274 126.148 114.109 126.148Z" fill="#E0E0E0"/>
</svg>
