<svg width="134" height="134" viewBox="0 0 134 134" fill="none" xmlns="http://www.w3.org/2000/svg">
<g clip-path="url(#clip0)">
<path d="M45.9746 50.4596H24.9492C22.7819 50.4596 21.0234 52.217 21.0234 54.3854C21.0234 56.5538 22.7819 58.3112 24.9492 58.3112H45.9736C48.142 58.3112 49.8994 56.5538 49.8994 54.3854C49.8994 52.217 48.142 50.4596 45.9746 50.4596Z" fill="#E0E0E0"/>
<path d="M45.9746 67.2791H24.9492C22.7819 67.2791 21.0234 69.0365 21.0234 71.2048C21.0234 73.3732 22.7819 75.1306 24.9492 75.1306H45.9736C48.142 75.1306 49.8994 73.3732 49.8994 71.2048C49.8994 69.0365 48.142 67.2791 45.9746 67.2791Z" fill="#E0E0E0"/>
<path d="M45.9746 84.0986H24.9492C22.7819 84.0986 21.0234 85.8571 21.0234 88.0244C21.0234 90.1928 22.7819 91.9502 24.9492 91.9502H45.9736C48.142 91.9502 49.8994 90.1928 49.8994 88.0244C49.8994 85.8571 48.142 84.0986 45.9746 84.0986Z" fill="#E0E0E0"/>
<path d="M45.9746 100.919H24.9492C22.7819 100.919 21.0234 102.677 21.0234 104.845C21.0234 107.012 22.7819 108.771 24.9492 108.771H45.9736C48.142 108.771 49.8994 107.012 49.8994 104.845C49.8994 102.677 48.142 100.919 45.9746 100.919Z" fill="#E0E0E0"/>
<path d="M131.452 50.709L100.361 39.0493V12.3355C100.361 9.0385 99.0769 5.94081 96.748 3.61601C94.4202 1.28406 91.3214 0 88.0244 0H29.1551C28.1143 0 27.1155 0.414047 26.3794 1.15013L1.15013 26.3794C0.414047 27.1155 0 28.1143 0 29.1551V121.664C0 128.466 5.53392 134 12.3355 134H96.4342C98.1783 134 97.9687 133.83 108.882 125.645C116.641 119.827 123.033 112.167 127.371 103.492C131.707 94.8189 134 85.1077 134 75.4098V54.3854C134 52.7486 132.985 51.2836 131.452 50.709ZM29.4352 9.19798V24.9502C29.4352 27.4232 27.4232 29.4342 24.9512 29.4342H9.19798L29.4352 9.19798ZM7.85156 121.664V37.2867H24.9502C31.7518 37.2867 37.2857 31.7528 37.2857 24.9512V7.85156H88.0244C89.2226 7.85156 90.3472 8.31775 91.1967 9.16731C92.0432 10.0128 92.5094 11.1384 92.5094 12.3355V39.0493L61.416 50.709C59.8845 51.2836 58.8693 52.7486 58.8693 54.3854V75.4098C58.8693 85.1077 61.1614 94.8189 65.4982 103.492C71.577 115.651 79.8927 122.575 84.6578 126.148H12.3355C9.86353 126.148 7.85156 124.136 7.85156 121.664ZM126.148 75.4098C126.148 83.8952 124.143 92.3918 120.349 99.9807C116.554 107.57 110.96 114.274 104.171 119.364L96.4342 125.167L88.6981 119.364C81.9098 114.273 76.3156 107.57 72.5206 99.9807C68.7257 92.3918 66.7209 83.8952 66.7209 75.4098V57.1058L96.4342 45.9623L126.148 57.1058V75.4098Z" fill="#E0E0E0"/>
<path d="M95.0566 54.9139L78.2371 61.2217C76.7046 61.7963 75.6895 63.2613 75.6895 64.8981V79.6146C75.6895 91.3756 81.3072 102.61 90.7158 109.667C94.2654 112.328 94.7878 112.976 96.4358 112.976C98.0838 112.976 98.6082 112.327 102.155 109.667C111.563 102.61 117.181 91.3756 117.181 79.6146V64.8981C117.181 63.2613 116.166 61.7963 114.633 61.2217L97.8139 54.9139C96.9245 54.5806 95.9461 54.5806 95.0566 54.9139ZM109.33 67.6185V79.6146C109.33 88.9169 104.886 97.8041 97.4438 103.386L96.4348 104.143L95.4267 103.386C87.9841 97.8041 83.541 88.9169 83.541 79.6146V67.6185L96.4358 62.7828L109.33 67.6185Z" fill="#E0E0E0"/>
</g>
<defs>
<clipPath id="clip0">
<rect width="134" height="134" fill="white"/>
</clipPath>
</defs>
</svg>
