<svg width="134" height="134" viewBox="0 0 134 134" fill="none" xmlns="http://www.w3.org/2000/svg">
<g clip-path="url(#clip0)">
<path d="M43.9574 71.1964C40.23 71.1964 36.5863 72.3017 33.4871 74.3726C30.3879 76.4434 27.9723 79.3868 26.5459 82.8304C25.1195 86.2741 24.7463 90.0634 25.4735 93.7192C26.2006 97.375 27.9956 100.733 30.6312 103.369C33.2669 106.004 36.625 107.799 40.2808 108.527C43.9365 109.254 47.7259 108.88 51.1695 107.454C54.6132 106.028 57.5566 103.612 59.6274 100.513C61.6983 97.4136 62.8036 93.7699 62.8036 90.0425C62.7981 85.0459 60.8108 80.2555 57.2776 76.7223C53.7445 73.1892 48.9541 71.2019 43.9574 71.1964ZM43.9574 104.701C41.0584 104.701 38.2244 103.841 35.8139 102.23C33.4033 100.62 31.5246 98.3303 30.4151 95.6519C29.3057 92.9735 29.0154 90.0263 29.581 87.1829C30.1466 84.3395 31.5426 81.7277 33.5926 79.6777C35.6426 77.6277 38.2544 76.2317 41.0978 75.6661C43.9412 75.1005 46.8884 75.3908 49.5669 76.5002C52.2453 77.6097 54.5346 79.4884 56.1452 81.8989C57.7559 84.3094 58.6155 87.1434 58.6155 90.0425C58.6108 93.9286 57.065 97.6543 54.3171 100.402C51.5692 103.15 47.8436 104.696 43.9574 104.701Z" fill="#E0E0E0" stroke="#E0E0E0" stroke-width="2"/>
<path d="M43.9564 79.5725C41.8856 79.5725 39.8613 80.1866 38.1395 81.337C36.4177 82.4875 35.0758 84.1227 34.2833 86.0359C33.4909 87.949 33.2835 90.0542 33.6875 92.0852C34.0915 94.1162 35.0887 95.9818 36.5529 97.446C38.0172 98.9103 39.8828 99.9075 41.9138 100.311C43.9448 100.715 46.05 100.508 47.9631 99.7156C49.8763 98.9232 51.5115 97.5812 52.6619 95.8594C53.8124 94.1376 54.4265 92.1134 54.4265 90.0426C54.4232 87.2667 53.3191 84.6055 51.3563 82.6427C49.3934 80.6799 46.7322 79.5758 43.9564 79.5725ZM43.9564 96.3246C42.7139 96.3246 41.4994 95.9562 40.4663 95.2659C39.4332 94.5756 38.628 93.5945 38.1525 92.4466C37.6771 91.2987 37.5527 90.0356 37.7951 88.817C38.0375 87.5984 38.6358 86.4791 39.5143 85.6005C40.3929 84.7219 41.5122 84.1236 42.7308 83.8812C43.9494 83.6388 45.2125 83.7633 46.3604 84.2387C47.5083 84.7142 48.4894 85.5194 49.1797 86.5525C49.87 87.5855 50.2384 88.8001 50.2384 90.0426C50.2366 91.7081 49.5742 93.3049 48.3965 94.4826C47.2187 95.6604 45.6219 96.3228 43.9564 96.3246Z" fill="#E0E0E0" stroke="#E0E0E0" stroke-width="2"/>
<path d="M77.7214 81.6828L70.9425 80.8363C70.5756 80.79 70.2274 80.6476 69.9334 80.4233C69.6393 80.199 69.4098 79.901 69.2682 79.5593C69.1266 79.2177 69.0778 78.8447 69.127 78.4782C69.1761 78.1116 69.3213 77.7646 69.5479 77.4723L73.7441 72.0799C74.0574 71.6769 74.2129 71.1735 74.1813 70.664C74.1496 70.1546 73.9331 69.6742 73.5724 69.3131L64.6871 60.4278C64.3265 60.0662 63.846 59.8491 63.3363 59.8175C62.8266 59.7859 62.3229 59.9419 61.9203 60.2561L56.5278 64.4523C56.2355 64.6788 55.8885 64.8241 55.522 64.8732C55.1554 64.9223 54.7824 64.8736 54.4408 64.7319C54.0992 64.5903 53.8011 64.3608 53.5768 64.0668C53.3526 63.7727 53.2101 63.4246 53.1639 63.0576L52.3173 56.2787C52.2538 55.7724 52.0076 55.3066 51.6251 54.9689C51.2426 54.6312 50.7499 54.4446 50.2396 54.4443H37.6756C37.1653 54.4446 36.6726 54.6312 36.2901 54.9689C35.9075 55.3066 35.6614 55.7724 35.5979 56.2787L34.7513 63.0576C34.7051 63.4246 34.5626 63.7727 34.3383 64.0668C34.1141 64.3608 33.816 64.5903 33.4744 64.7319C33.1328 64.8736 32.7598 64.9223 32.3932 64.8732C32.0267 64.8241 31.6797 64.6788 31.3874 64.4523L25.9949 60.256C25.5923 59.9418 25.0887 59.7858 24.5789 59.8174C24.0692 59.849 23.5887 60.0661 23.2281 60.4277L14.3428 69.3131C13.9821 69.6742 13.7656 70.1546 13.734 70.664C13.7024 71.1735 13.8578 71.6769 14.1711 72.0799L18.3673 77.4723C18.5939 77.7646 18.7391 78.1116 18.7882 78.4782C18.8373 78.8447 18.7886 79.2177 18.647 79.5593C18.5054 79.901 18.2759 80.199 17.9818 80.4233C17.6877 80.6476 17.3396 80.79 16.9727 80.8363L10.1937 81.6828C9.6874 81.7464 9.22167 81.9925 8.88393 82.375C8.54619 82.7576 8.35967 83.2502 8.35938 83.7605V96.3246C8.35967 96.8349 8.54619 97.3275 8.88393 97.7101C9.22167 98.0926 9.6874 98.3387 10.1937 98.4022L16.9727 99.2488C17.3396 99.2951 17.6877 99.4375 17.9818 99.6618C18.2759 99.8861 18.5054 100.184 18.647 100.526C18.7886 100.867 18.8373 101.24 18.7882 101.607C18.7391 101.973 18.5939 102.32 18.3673 102.613L14.1711 108.005C13.8577 108.408 13.7023 108.912 13.7339 109.421C13.7655 109.931 13.982 110.411 14.3428 110.772L23.228 119.655C23.5887 120.017 24.0692 120.234 24.5789 120.266C25.0886 120.297 25.5923 120.141 25.9948 119.827L31.3873 115.633C31.6796 115.406 32.0266 115.261 32.3931 115.212C32.7597 115.163 33.1327 115.211 33.4743 115.353C33.8159 115.495 34.114 115.724 34.3383 116.018C34.5625 116.312 34.705 116.66 34.7512 117.027L35.5978 123.806C35.6613 124.313 35.9075 124.778 36.29 125.116C36.6726 125.454 37.1652 125.64 37.6756 125.641H50.2396C50.7499 125.64 51.2426 125.454 51.6251 125.116C52.0076 124.778 52.2538 124.313 52.3173 123.806L53.1639 117.027C53.2101 116.661 53.3526 116.312 53.5768 116.018C53.8011 115.724 54.0992 115.495 54.4408 115.353C54.7824 115.212 55.1554 115.163 55.522 115.212C55.8885 115.261 56.2355 115.406 56.5278 115.633L61.9203 119.827C62.3229 120.141 62.8265 120.297 63.3362 120.266C63.8459 120.234 64.3264 120.017 64.6871 119.655L73.5723 110.772C73.9331 110.411 74.1496 109.931 74.1812 109.421C74.2128 108.912 74.0574 108.408 73.744 108.005L69.5479 102.613C69.3213 102.32 69.1761 101.973 69.127 101.607C69.0778 101.24 69.1266 100.867 69.2682 100.526C69.4098 100.184 69.6393 99.8861 69.9334 99.6618C70.2274 99.4375 70.5756 99.2951 70.9425 99.2488L77.7214 98.4022C78.2278 98.3387 78.6935 98.0926 79.0312 97.7101C79.369 97.3275 79.5555 96.8349 79.5558 96.3246V83.7605C79.5555 83.2502 79.369 82.7576 79.0312 82.375C78.6935 81.9925 78.2278 81.7464 77.7214 81.6828ZM75.3678 94.476L70.4231 95.0935C69.322 95.2314 68.277 95.6585 67.3944 96.3313C66.5119 97.0041 65.8233 97.8987 65.3986 98.924C64.9739 99.9492 64.8284 101.069 64.9768 102.169C65.1251 103.268 65.5621 104.309 66.2433 105.185L69.3045 109.118L63.0327 115.387L59.1003 112.328C58.2242 111.647 57.1833 111.21 56.0835 111.062C54.9838 110.913 53.8643 111.059 52.839 111.484C51.8137 111.908 50.9192 112.597 50.2464 113.479C49.5736 114.362 49.1465 115.407 49.0086 116.508L48.391 121.453H39.5242L38.9066 116.508C38.7687 115.407 38.3416 114.362 37.6688 113.479C36.996 112.597 36.1015 111.908 35.0762 111.484C34.0509 111.059 32.9314 110.913 31.8316 111.062C30.7318 111.21 29.691 111.647 28.8148 112.328L24.8824 115.387L18.6106 109.118L21.6719 105.185C22.3531 104.309 22.79 103.268 22.9384 102.169C23.0868 101.069 22.9412 99.9492 22.5166 98.924C22.0919 97.8987 21.4033 97.0041 20.5207 96.3313C19.6382 95.6585 18.5932 95.2314 17.4921 95.0935L12.5474 94.476V85.6091L17.4921 84.9916C18.5932 84.8537 19.6382 84.4266 20.5207 83.7538C21.4033 83.081 22.0919 82.1864 22.5166 81.1611C22.9412 80.1359 23.0868 79.0164 22.9384 77.9166C22.79 76.8168 22.3531 75.7759 21.6719 74.8998L18.6106 70.9674L24.8824 64.6956L28.8148 67.7569C29.691 68.438 30.7318 68.875 31.8316 69.0234C32.9314 69.1717 34.0509 69.0262 35.0762 68.6015C36.1015 68.1769 36.996 67.4882 37.6688 66.6057C38.3416 65.7232 38.7687 64.6782 38.9066 63.577L39.5242 58.6324H48.391L49.0086 63.577C49.1465 64.6782 49.5736 65.7232 50.2464 66.6057C50.9192 67.4882 51.8137 68.1769 52.839 68.6015C53.8643 69.0262 54.9838 69.1717 56.0835 69.0234C57.1833 68.875 58.2242 68.438 59.1003 67.7569L63.0327 64.6956L69.3045 70.9674L66.2433 74.8998C65.5621 75.7759 65.1251 76.8168 64.9768 77.9166C64.8284 79.0164 64.9739 80.1359 65.3986 81.1611C65.8233 82.1864 66.5119 83.081 67.3944 83.7538C68.277 84.4266 69.322 84.8537 70.4231 84.9916L75.3678 85.6091V94.476Z" fill="#E0E0E0" stroke="#E0E0E0" stroke-width="2"/>
<path d="M102.589 39.7863C104.246 39.7863 105.865 39.295 107.242 38.3747C108.62 37.4543 109.693 36.1461 110.327 34.6156C110.961 33.0851 111.127 31.4009 110.804 29.7761C110.481 28.1514 109.683 26.6589 108.512 25.4875C107.34 24.3161 105.848 23.5183 104.223 23.1951C102.598 22.8719 100.914 23.0378 99.3836 23.6718C97.853 24.3057 96.5449 25.3793 95.6245 26.7568C94.7041 28.1342 94.2129 29.7536 94.2129 31.4102C94.2151 33.631 95.0983 35.7602 96.6686 37.3305C98.239 38.9009 100.368 39.7841 102.589 39.7863ZM102.589 27.2222C103.417 27.2222 104.227 27.4678 104.916 27.928C105.604 28.3882 106.141 29.0423 106.458 29.8075C106.775 30.5728 106.858 31.4149 106.696 32.2273C106.535 33.0397 106.136 33.7859 105.55 34.3716C104.965 34.9573 104.218 35.3562 103.406 35.5178C102.594 35.6794 101.752 35.5964 100.986 35.2795C100.221 34.9625 99.5669 34.4257 99.1067 33.737C98.6465 33.0483 98.4009 32.2385 98.4009 31.4102C98.4024 30.2999 98.8441 29.2355 99.6292 28.4504C100.414 27.6653 101.479 27.2236 102.589 27.2222Z" fill="#E0E0E0" stroke="#E0E0E0" stroke-width="2"/>
<path d="M83.117 20.7807L85.7161 24.4227L81.3052 25.1568C80.816 25.2379 80.3716 25.4901 80.051 25.8684C79.7304 26.2466 79.5545 26.7264 79.5547 27.2222V35.5983C79.5545 36.0941 79.7304 36.5739 80.051 36.9521C80.3716 37.3304 80.816 37.5825 81.3052 37.6636L85.7161 38.3978L83.117 42.0398C82.8288 42.443 82.693 42.9354 82.7338 43.4293C82.7746 43.9232 82.9894 44.3867 83.3399 44.7371L89.262 50.6592C89.6127 51.0092 90.076 51.2237 90.5698 51.2645C91.0636 51.3053 91.5559 51.1698 91.9593 50.8821L95.6013 48.283L96.3354 52.6939C96.4165 53.1831 96.6687 53.6275 97.0469 53.9481C97.4252 54.2687 97.905 54.4445 98.4008 54.4444H106.777C107.273 54.4445 107.752 54.2687 108.131 53.9481C108.509 53.6275 108.761 53.1831 108.842 52.6939L109.576 48.283L113.218 50.8821C113.622 51.1697 114.114 51.3052 114.608 51.2644C115.102 51.2236 115.565 51.0092 115.916 50.6592L121.838 44.7371C122.188 44.3867 122.403 43.9232 122.444 43.4293C122.485 42.9354 122.349 42.443 122.061 42.0398L119.462 38.3978L123.872 37.6636C124.362 37.5825 124.806 37.3304 125.127 36.9521C125.447 36.5739 125.623 36.0941 125.623 35.5983V27.2222C125.623 26.7264 125.447 26.2466 125.127 25.8684C124.806 25.4901 124.362 25.2379 123.872 25.1568L119.462 24.4227L122.061 20.7807C122.349 20.3775 122.485 19.8851 122.444 19.3912C122.403 18.8972 122.188 18.4338 121.838 18.0834L115.916 12.1613C115.565 11.8104 115.102 11.5954 114.608 11.5546C114.114 11.5138 113.621 11.6498 113.218 11.9384L109.576 14.5375L108.842 10.1266C108.761 9.63742 108.509 9.19297 108.131 8.87239C107.752 8.55181 107.273 8.37594 106.777 8.3761H98.4008C97.905 8.37594 97.4252 8.55181 97.0469 8.87239C96.6687 9.19297 96.4165 9.63742 96.3354 10.1266L95.6013 14.5375L91.9593 11.9384C91.5562 11.6497 91.0637 11.5136 90.5697 11.5545C90.0756 11.5953 89.6121 11.8104 89.262 12.1613L83.3399 18.0834C82.9894 18.4338 82.7746 18.8972 82.7338 19.3912C82.693 19.8851 82.8288 20.3775 83.117 20.7807ZM90.9695 16.3759L95.8978 19.8953C96.187 20.102 96.524 20.2317 96.8771 20.2721C97.2303 20.3125 97.5879 20.2623 97.9163 20.1263C98.2447 19.9902 98.533 19.7728 98.7541 19.4944C98.9752 19.2161 99.1217 18.886 99.1799 18.5354L100.176 12.5641H105.002L105.998 18.5353C106.056 18.886 106.202 19.216 106.424 19.4944C106.645 19.7727 106.933 19.9902 107.261 20.1262C107.59 20.2623 107.947 20.3125 108.301 20.2721C108.654 20.2316 108.991 20.102 109.28 19.8952L114.208 16.3759L117.623 19.7909L114.104 24.7192C113.897 25.0084 113.767 25.3454 113.727 25.6986C113.687 26.0517 113.737 26.4093 113.873 26.7377C114.009 27.0661 114.226 27.3544 114.505 27.5755C114.783 27.7966 115.113 27.9431 115.464 28.0013L121.435 28.9972V33.8232L115.464 34.8191C115.113 34.8773 114.783 35.0239 114.505 35.245C114.226 35.4661 114.009 35.7544 113.873 36.0828C113.737 36.4111 113.687 36.7688 113.727 37.1219C113.767 37.4751 113.897 37.8121 114.104 38.1013L117.623 43.0296L114.208 46.4446L109.28 42.9252C108.991 42.7185 108.654 42.5888 108.301 42.5484C107.947 42.508 107.59 42.5582 107.261 42.6942C106.933 42.8303 106.645 43.0477 106.424 43.3261C106.202 43.6044 106.056 43.9344 105.998 44.2851L105.002 50.2563H100.176L99.1799 44.2851C99.1217 43.9345 98.9752 43.6044 98.7541 43.3261C98.533 43.0478 98.2447 42.8303 97.9163 42.6943C97.5879 42.5582 97.2303 42.508 96.8771 42.5484C96.524 42.5888 96.187 42.7185 95.8978 42.9253L90.9695 46.4446L87.5545 43.0296L91.0738 38.1013C91.2806 37.8121 91.4103 37.4751 91.4507 37.1219C91.4911 36.7688 91.4409 36.4111 91.3048 36.0828C91.1688 35.7544 90.9513 35.4661 90.673 35.245C90.3947 35.0239 90.0646 34.8773 89.714 34.8191L83.7427 33.8232V28.9972L89.7139 28.0013C90.0646 27.9431 90.3946 27.7966 90.673 27.5755C90.9513 27.3544 91.1687 27.0661 91.3048 26.7377C91.4409 26.4093 91.4911 26.0517 91.4506 25.6986C91.4102 25.3454 91.2805 25.0084 91.0738 24.7192L87.5545 19.7909L90.9695 16.3759Z" fill="#E0E0E0" stroke="#E0E0E0" stroke-width="2"/>
<path d="M123.479 54.8022C123.479 54.8022 134 43.9743 134 31.4102C133.991 23.0825 130.679 15.0985 124.79 9.20988C118.902 3.32129 110.918 0.00909559 102.59 0C90.0257 0 80.5605 9.05432 80.5605 9.05432C80.5605 9.05432 17.4372 55.0244 17.3526 55.1121C12.1187 59.0932 7.84521 64.1983 4.84724 70.051C1.84928 75.9037 0.203318 82.3548 0.0307566 88.9284C-0.141805 95.502 1.16343 102.031 3.85021 108.032C6.53698 114.034 10.5368 119.357 15.5546 123.607C20.5724 127.857 26.4803 130.927 32.8425 132.589C39.2047 134.252 45.859 134.465 52.3147 133.213C58.7703 131.962 64.8626 129.277 70.1423 125.357C75.422 121.436 79.7544 116.381 82.82 110.564C83.0055 110.434 123.479 54.8022 123.479 54.8022ZM129.812 31.4102C129.812 36.7942 128.215 42.0573 125.224 46.534C122.233 51.0107 117.981 54.4998 113.007 56.5602C108.033 58.6206 102.56 59.1597 97.279 58.1093C91.9985 57.0589 87.1479 54.4663 83.3408 50.6592C79.5338 46.8521 76.9411 42.0016 75.8907 36.721C74.8403 31.4404 75.3794 25.9669 77.4398 20.9927C79.5002 16.0185 82.9893 11.767 87.466 8.77579C91.9427 5.78458 97.2058 4.18802 102.59 4.18802C109.807 4.19637 116.726 7.06709 121.83 12.1704C126.933 17.2738 129.804 24.193 129.812 31.4102ZM43.9575 129.829C36.0885 129.829 28.3962 127.495 21.8534 123.124C15.3106 118.752 10.2111 112.538 7.19977 105.268C4.18845 97.9981 3.40055 89.9984 4.93571 82.2806C6.47087 74.5629 10.2601 67.4736 15.8243 61.9094C21.3886 56.3452 28.4778 52.5559 36.1956 51.0208C43.9133 49.4856 51.913 50.2735 59.183 53.2848C66.453 56.2962 72.6667 61.3957 77.0385 67.9385C81.4103 74.4813 83.7437 82.1736 83.7437 90.0425C83.7317 100.591 79.5361 110.704 72.0773 118.162C64.6186 125.621 54.5058 129.817 43.9575 129.829ZM43.9575 46.0683C41.1768 46.075 38.4031 46.3457 35.6736 46.8766L73.6214 19.278C71.2157 25.0013 70.5617 31.3095 71.742 37.4046C72.9222 43.4997 75.8839 49.1077 80.2521 53.5192C84.6204 57.9307 90.199 60.9475 96.2822 62.1878C102.365 63.4281 108.68 62.8362 114.426 60.487L87.216 97.7223C88.375 91.3945 88.1249 84.8889 86.4835 78.6688C84.842 72.4486 81.8496 66.6667 77.7192 61.7347C73.5888 56.8027 68.422 52.8418 62.5866 50.134C56.7511 47.4262 50.3905 46.038 43.9575 46.0683Z" fill="#E0E0E0" stroke="#E0E0E0" stroke-width="2"/>
<path d="M29.7 26.3592C29.8615 26.5817 30.0653 26.7702 30.2998 26.9138C30.5342 27.0575 30.7947 27.1536 31.0663 27.1965C31.3379 27.2394 31.6153 27.2284 31.8826 27.164C32.1499 27.0996 32.4019 26.9832 32.6242 26.8213L55.6584 10.0692C55.8816 9.90787 56.0707 9.70408 56.215 9.46951C56.3593 9.23495 56.4559 8.97421 56.4993 8.70225C56.5427 8.43028 56.5319 8.15244 56.4678 7.88462C56.4036 7.61681 56.2872 7.3643 56.1252 7.14155C55.9632 6.9188 55.7589 6.73019 55.524 6.58654C55.289 6.44289 55.028 6.347 54.7559 6.30439C54.4838 6.26177 54.206 6.27326 53.9384 6.3382C53.6708 6.40314 53.4186 6.52024 53.1963 6.68281L30.1621 23.4349C29.9395 23.5964 29.751 23.8002 29.6072 24.0346C29.4635 24.269 29.3674 24.5295 29.3245 24.8012C29.2815 25.0728 29.2926 25.3502 29.357 25.6176C29.4215 25.8849 29.538 26.1369 29.7 26.3592Z" fill="#E0E0E0" stroke="#E0E0E0" stroke-width="2"/>
<path d="M25.9879 33.8949L11.3298 44.365C11.1061 44.5248 10.916 44.727 10.7705 44.9603C10.625 45.1935 10.5268 45.4531 10.4816 45.7243C10.4364 45.9954 10.4451 46.2728 10.5071 46.5407C10.5691 46.8085 10.6832 47.0615 10.843 47.2852C11.0028 47.5089 11.2051 47.6989 11.4383 47.8445C11.6716 47.99 11.9312 48.0882 12.2023 48.1334C12.4735 48.1786 12.7509 48.1699 13.0187 48.1079C13.2865 48.0459 13.5395 47.9317 13.7632 47.7719L28.4213 37.3019C28.645 37.1421 28.8351 36.9398 28.9806 36.7066C29.1261 36.4734 29.2243 36.2137 29.2695 35.9426C29.3147 35.6714 29.306 35.394 29.244 35.1262C29.182 34.8584 29.0679 34.6054 28.9081 34.3817C28.7483 34.158 28.546 33.9679 28.3128 33.8224C28.0796 33.6769 27.82 33.5787 27.5488 33.5335C27.2776 33.4883 27.0002 33.4969 26.7324 33.559C26.4646 33.621 26.2116 33.7351 25.9879 33.8949Z" fill="#E0E0E0" stroke="#E0E0E0" stroke-width="2"/>
<path d="M10.4546 29.3162C10.8964 29.3162 11.3268 29.1758 11.6836 28.9154L34.7178 12.1633C34.941 12.002 35.1301 11.7982 35.2745 11.5636C35.4188 11.3291 35.5154 11.0683 35.5587 10.7964C35.6021 10.5244 35.5914 10.2466 35.5272 9.97874C35.463 9.71093 35.3466 9.45841 35.1846 9.23566C35.0227 9.01291 34.8184 8.82431 34.5834 8.68066C34.3484 8.537 34.0874 8.44112 33.8153 8.39851C33.5433 8.35589 33.2654 8.36738 32.9978 8.43232C32.7302 8.49725 32.478 8.61436 32.2557 8.77692L9.22155 25.529C8.86394 25.7891 8.59788 26.1558 8.46148 26.5765C8.32508 26.9971 8.32535 27.4501 8.46225 27.8706C8.59916 28.2911 8.86567 28.6574 9.22358 28.9171C9.5815 29.1768 10.0124 29.3165 10.4546 29.3162Z" fill="#E0E0E0" stroke="#E0E0E0" stroke-width="2"/>
<path d="M125.232 89.1651C125.554 88.7133 125.684 88.1518 125.593 87.6042C125.502 87.0565 125.197 86.5676 124.745 86.2449C124.293 85.9222 123.732 85.7922 123.184 85.8835C122.636 85.9748 122.148 86.2799 121.825 86.7316L111.355 101.39C111.195 101.613 111.081 101.866 111.019 102.134C110.957 102.402 110.948 102.679 110.993 102.951C111.039 103.222 111.137 103.481 111.282 103.715C111.428 103.948 111.618 104.15 111.842 104.31C112.065 104.47 112.318 104.584 112.586 104.646C112.854 104.708 113.131 104.717 113.402 104.671C113.674 104.626 113.933 104.528 114.166 104.382C114.4 104.237 114.602 104.047 114.762 103.823L125.232 89.1651Z" fill="#E0E0E0" stroke="#E0E0E0" stroke-width="2"/>
<path d="M98.7916 103.484L88.3216 118.142C87.9989 118.594 87.8689 119.155 87.9601 119.703C88.0514 120.251 88.3565 120.74 88.8083 121.062C89.2601 121.385 89.8216 121.515 90.3692 121.424C90.9169 121.333 91.4058 121.027 91.7285 120.576L102.199 105.918C102.521 105.466 102.651 104.904 102.56 104.357C102.469 103.809 102.164 103.32 101.712 102.997C101.26 102.675 100.699 102.545 100.151 102.636C99.6033 102.727 99.1143 103.032 98.7916 103.484Z" fill="#E0E0E0" stroke="#E0E0E0" stroke-width="2"/>
<path d="M123.921 101.39L113.45 116.048C113.128 116.5 112.998 117.061 113.089 117.609C113.18 118.157 113.485 118.646 113.937 118.968C114.389 119.291 114.95 119.421 115.498 119.33C116.046 119.239 116.535 118.933 116.857 118.482L127.327 103.824C127.65 103.372 127.78 102.81 127.689 102.263C127.598 101.715 127.293 101.226 126.841 100.903C126.389 100.581 125.827 100.451 125.28 100.542C124.732 100.633 124.243 100.938 123.921 101.39Z" fill="#E0E0E0" stroke="#E0E0E0" stroke-width="2"/>
</g>
<defs>
<clipPath id="clip0">
<rect width="134" height="134" fill="white"/>
</clipPath>
</defs>
</svg>
