<svg width="134" height="134" viewBox="0 0 134 134" fill="none" xmlns="http://www.w3.org/2000/svg">
<g clip-path="url(#clip0)">
<path d="M29.1367 58.3112H79.5963C81.7647 58.3112 83.5221 56.5538 83.5221 54.3854C83.5221 52.217 81.7647 50.4596 79.5963 50.4596H29.1367C26.9694 50.4596 25.2109 52.217 25.2109 54.3854C25.2109 56.5538 26.9694 58.3112 29.1367 58.3112Z" fill="#E0E0E0"/>
<path d="M29.1367 75.1306H79.5963C81.7647 75.1306 83.5221 73.3732 83.5221 71.2048C83.5221 69.0365 81.7647 67.2791 79.5963 67.2791H29.1367C26.9694 67.2791 25.2109 69.0365 25.2109 71.2048C25.2109 73.3732 26.9694 75.1306 29.1367 75.1306Z" fill="#E0E0E0"/>
<path d="M54.367 84.0986H29.1367C26.9694 84.0986 25.2109 85.8571 25.2109 88.0244C25.2109 90.1928 26.9694 91.9502 29.1367 91.9502H54.367C56.5344 91.9502 58.2928 90.1928 58.2928 88.0244C58.2928 85.8571 56.5344 84.0986 54.367 84.0986Z" fill="#E0E0E0"/>
<path d="M54.367 100.919H29.1367C26.9694 100.919 25.2109 102.677 25.2109 104.845C25.2109 107.012 26.9694 108.771 29.1367 108.771H54.367C56.5344 108.771 58.2928 107.012 58.2928 104.845C58.2928 102.677 56.5344 100.919 54.367 100.919Z" fill="#E0E0E0"/>
<path d="M104.547 75.9547V12.3355C104.547 5.53392 99.0135 0 92.2119 0H33.3426C32.3018 0 31.303 0.414047 30.5669 1.15013L5.33763 26.3794C4.60155 27.1155 4.1875 28.1143 4.1875 29.1551V121.664C4.1875 128.466 9.72142 134 16.523 134H100.622C116.698 134 129.778 120.921 129.778 104.845C129.778 90.0997 118.774 77.8777 104.547 75.9547ZM33.6217 9.19901V24.9512C33.6217 27.4232 31.6107 29.4352 29.1377 29.4352H13.3855L33.6217 9.19901ZM16.523 126.148C14.051 126.148 12.0391 124.136 12.0391 121.664V37.2867H29.1377C35.9393 37.2867 41.4732 31.7528 41.4732 24.9512V7.85156H92.2119C94.6849 7.85156 96.6959 9.86353 96.6959 12.3355V75.9547C82.47 77.8777 71.4666 90.0997 71.4666 104.844C71.4666 113.243 75.0376 120.823 80.7402 126.148H16.523ZM100.622 126.148C88.875 126.148 79.3182 116.592 79.3182 104.845C79.3182 93.0972 88.875 83.5404 100.622 83.5404C112.369 83.5404 121.926 93.0972 121.926 104.845C121.926 116.592 112.369 126.148 100.622 126.148Z" fill="#E0E0E0"/>
<path d="M109.031 100.919H104.548V96.4352C104.548 94.2668 102.789 92.5094 100.622 92.5094C98.4533 92.5094 96.6959 94.2668 96.6959 96.4352V100.919H92.2109C90.0436 100.919 88.2852 102.677 88.2852 104.845C88.2852 107.012 90.0436 108.771 92.2109 108.771H96.6949V113.255C96.6949 115.422 98.4533 117.18 100.621 117.18C102.789 117.18 104.546 115.422 104.546 113.255V108.771H109.03C111.199 108.771 112.956 107.012 112.956 104.845C112.956 102.677 111.199 100.919 109.031 100.919Z" fill="#E0E0E0"/>
</g>
<defs>
<clipPath id="clip0">
<rect width="134" height="134" fill="white"/>
</clipPath>
</defs>
</svg>
