<svg width="134" height="134" viewBox="0 0 134 134" fill="none" xmlns="http://www.w3.org/2000/svg">
<g clip-path="url(#clip0)">
<path d="M120.796 28.1728C131.064 17.9453 123.701 -0.0344796 109.049 -0.000194438C94.3983 -0.0347413 87.0348 17.9482 97.3036 28.1728C96.5111 28.5976 95.744 29.0634 95.0055 29.5685C78.6433 18.2175 55.3569 18.2178 38.995 29.5685C38.2565 29.0637 37.4894 28.5976 36.6969 28.1728C46.9646 17.9453 39.602 -0.0344796 24.9504 -0.000194438C10.2994 -0.0347413 2.9357 17.9482 13.2048 28.1728C5.35293 32.3804 0 40.6665 0 50.1799V58.5897C0 60.7578 1.7577 62.5155 3.92578 62.5155H17.5723C13.6732 83.1981 24.3597 105.349 42.8952 115.219C42.3448 117.276 42.0496 119.436 42.0496 121.664V130.074C42.0496 132.242 43.8073 134 45.9753 134H88.0249C90.193 134 91.9507 132.242 91.9507 130.074V121.664C91.9507 119.436 91.6555 117.276 91.1051 115.219C109.641 105.349 120.327 83.1984 116.428 62.5158H130.074C132.242 62.5158 134 60.7581 134 58.59V50.1802C134 40.6665 128.647 32.3804 120.796 28.1728ZM109.05 7.85137C113.841 7.85137 117.739 11.7494 117.739 16.5404C117.262 28.0676 100.836 28.0642 100.361 16.5404C100.361 11.7491 104.258 7.85137 109.05 7.85137ZM24.9504 7.85137C29.7415 7.85137 33.6395 11.7494 33.6395 16.5404C33.1621 28.0676 16.7369 28.0642 16.2614 16.5404C16.2614 11.7491 20.1594 7.85137 24.9504 7.85137ZM7.85156 54.6642V50.1802C8.79349 27.4905 41.116 27.508 42.0496 50.1802V54.6642H7.85156ZM84.0989 126.148H49.9011V121.664C50.8431 98.9745 83.1656 98.9921 84.0991 121.664V126.148H84.0989ZM58.3109 88.0245C58.3109 83.2332 62.209 79.3354 67 79.3354C78.5271 79.8128 78.524 96.238 67 96.7135C62.2087 96.7135 58.3109 92.8158 58.3109 88.0245ZM87.8789 108.02C85.5878 104.526 82.4445 101.639 78.7462 99.6571C89.0147 89.4296 81.6515 71.4496 67 71.4841C52.349 71.4496 44.9853 89.4325 55.2543 99.6571C51.556 101.639 48.4127 104.526 46.1216 108.02C30.3725 99.2352 21.691 80.2635 25.5663 62.5158H45.9756C48.1437 62.5158 49.9014 60.7581 49.9014 58.59V50.1802C49.9014 44.5347 48.0157 39.322 44.8424 35.1363C57.9791 26.8176 76.022 26.8179 89.1584 35.1363C85.9851 39.322 84.0994 44.5347 84.0994 50.1802V58.59C84.0994 60.7581 85.8571 62.5158 88.0252 62.5158H108.435C112.309 80.265 103.628 99.2339 87.8789 108.02ZM126.148 54.6642H91.9504V50.1802C92.8924 27.4905 125.215 27.508 126.148 50.1802V54.6642Z" fill="#E0E0E0"/>
</g>
<defs>
<clipPath id="clip0">
<rect width="134" height="134" fill="white"/>
</clipPath>
</defs>
</svg>
