<svg width="134" height="134" viewBox="0 0 134 134" fill="none" xmlns="http://www.w3.org/2000/svg">
<g clip-path="url(#clip0)">
<path d="M107.149 16.5578H102.665V12.0738C102.665 5.27221 97.1315 -0.261719 90.3298 -0.261719H44.075C43.0343 -0.261719 42.0355 0.152329 41.2994 0.888415L16.0701 26.1177C15.334 26.8538 14.9199 27.8527 14.9199 28.8934V104.583C14.9199 111.385 20.4539 116.919 27.2555 116.919H31.7395V121.403C31.7395 124.7 33.0235 127.798 35.3524 130.123C37.6803 132.454 40.779 133.739 44.0761 133.739H107.15C113.952 133.739 119.486 128.205 119.486 121.403V28.8934C119.486 22.0918 113.952 16.5578 107.149 16.5578ZM44.3541 8.93628V24.6885C44.3541 27.1616 42.3432 29.1725 39.8701 29.1725H24.1189L44.3541 8.93628ZM22.7715 104.583V37.0251H39.8701C46.6718 37.0251 52.2057 31.4912 52.2057 24.6895V7.58986H90.3298C92.8018 7.58986 94.8138 9.60183 94.8138 12.0738V104.583C94.8138 107.055 92.8018 109.067 90.3298 109.067H27.2555C24.7824 109.067 22.7715 107.055 22.7715 104.583ZM111.634 121.403C111.634 123.875 109.622 125.887 107.15 125.887H44.0761C42.8779 125.887 41.7533 125.421 40.9037 124.571C40.0572 123.726 39.5911 122.6 39.5911 121.403V116.919H90.3298C97.1325 116.919 102.665 111.385 102.665 104.583V24.4094H107.15C109.622 24.4094 111.634 26.4214 111.634 28.8934V121.403Z" fill="#E0E0E0"/>
<path d="M39.8691 58.0493H77.7142C79.8826 58.0493 81.64 56.2919 81.64 54.1235C81.64 51.9552 79.8826 50.1978 77.7142 50.1978H39.8691C37.7018 50.1978 35.9434 51.9552 35.9434 54.1235C35.9434 56.2919 37.7018 58.0493 39.8691 58.0493Z" fill="#E0E0E0"/>
<path d="M39.8691 74.869H77.7142C79.8826 74.869 81.64 73.1116 81.64 70.9432C81.64 68.7749 79.8826 67.0175 77.7142 67.0175H39.8691C37.7018 67.0175 35.9434 68.7749 35.9434 70.9432C35.9434 73.1116 37.7018 74.869 39.8691 74.869Z" fill="#E0E0E0"/>
<path d="M39.8691 91.6886H60.8946C63.062 91.6886 64.8204 89.9312 64.8204 87.7628C64.8204 85.5955 63.062 83.837 60.8946 83.837H39.8691C37.7018 83.837 35.9434 85.5955 35.9434 87.7628C35.9434 89.9312 37.7018 91.6886 39.8691 91.6886Z" fill="#E0E0E0"/>
</g>
<defs>
<clipPath id="clip0">
<rect width="134" height="134" fill="white"/>
</clipPath>
</defs>
</svg>
