<svg width="68" height="68" viewBox="0 0 68 68" fill="none" xmlns="http://www.w3.org/2000/svg">
<g clip-path="url(#clip0)">
<path d="M64.9399 30.3291H19.2099C18.3988 30.3305 17.6213 30.6533 17.0477 31.2269C16.4742 31.8005 16.1513 32.578 16.1499 33.3891V59.0219C16.1513 59.833 16.4742 60.6105 17.0477 61.1841C17.6213 61.7577 18.3988 62.0805 19.2099 62.0819H53.5712C54.2352 65.4872 57.9752 67.9947 61.2371 67.9947C62.4299 67.9931 63.6011 67.676 64.6318 67.0757C64.7928 66.9823 64.9265 66.8482 65.0194 66.6869C65.1123 66.5256 65.1612 66.3427 65.1612 66.1566C65.1612 65.9705 65.1123 65.7876 65.0194 65.6263C64.9265 65.465 64.7928 65.3309 64.6318 65.2375C64.0685 64.8879 63.5821 64.4274 63.2022 63.884C62.8223 63.3406 62.5568 62.7257 62.4218 62.0766H64.9453C65.7545 62.0738 66.5299 61.7511 67.1021 61.1788C67.6744 60.6065 67.9971 59.8312 67.9999 59.0219V33.3891C67.9985 32.578 67.6757 31.8005 67.1021 31.2269C66.5286 30.6533 65.7511 30.3305 64.9399 30.3291ZM65.8749 59.0166C65.8749 59.1394 65.8508 59.261 65.8038 59.3744C65.7568 59.4878 65.6879 59.5909 65.6011 59.6777C65.5143 59.7646 65.4112 59.8334 65.2977 59.8804C65.1843 59.9274 65.0627 59.9516 64.9399 59.9516H61.2212C60.9394 59.9516 60.6691 60.0635 60.4699 60.2628C60.2706 60.462 60.1587 60.7323 60.1587 61.0141C60.1654 62.7782 60.8174 64.4788 61.9915 65.7953C61.737 65.8384 61.4793 65.8598 61.2212 65.8591C58.7349 65.8591 55.5793 63.5747 55.5793 61.0088C55.5793 60.727 55.4674 60.4567 55.2681 60.2575C55.0689 60.0582 54.7986 59.9463 54.5168 59.9463H19.2099C18.962 59.9463 18.7241 59.8478 18.5488 59.6724C18.3734 59.4971 18.2749 59.2593 18.2749 59.0113V33.3891C18.2763 33.1416 18.3753 32.9045 18.5503 32.7295C18.7254 32.5545 18.9624 32.4555 19.2099 32.4541H64.9399C65.0627 32.4541 65.1843 32.4783 65.2977 32.5253C65.4112 32.5723 65.5143 32.6411 65.6011 32.728C65.6879 32.8148 65.7568 32.9179 65.8038 33.0313C65.8508 33.1447 65.8749 33.2663 65.8749 33.3891V59.0166Z" fill="#E0E0E0"/>
<path d="M43.5199 48.5137H25.5849C25.3031 48.5137 25.0329 48.6256 24.8336 48.8249C24.6344 49.0241 24.5224 49.2944 24.5224 49.5762C24.5224 49.858 24.6344 50.1282 24.8336 50.3275C25.0329 50.5267 25.3031 50.6387 25.5849 50.6387H43.5199C43.8017 50.6387 44.072 50.5267 44.2712 50.3275C44.4705 50.1282 44.5824 49.858 44.5824 49.5762C44.5824 49.2944 44.4705 49.0241 44.2712 48.8249C44.072 48.6256 43.8017 48.5137 43.5199 48.5137Z" fill="#E0E0E0"/>
<path d="M58.5596 40.9062H25.5849C25.3031 40.9062 25.0329 41.0182 24.8336 41.2174C24.6344 41.4167 24.5224 41.687 24.5224 41.9688C24.5224 42.2505 24.6344 42.5208 24.8336 42.7201C25.0329 42.9193 25.3031 43.0312 25.5849 43.0312H58.5649C58.8467 43.0312 59.117 42.9193 59.3162 42.7201C59.5155 42.5208 59.6274 42.2505 59.6274 41.9688C59.6274 41.687 59.5155 41.4167 59.3162 41.2174C59.117 41.0182 58.8467 40.9062 58.5649 40.9062H58.5596Z" fill="#E0E0E0"/>
<path d="M46.2825 0H2.95375C2.1708 0.0014044 1.42032 0.313053 0.866685 0.866685C0.313053 1.42032 0.0014044 2.1708 0 2.95375L0 29.5906C0.0014044 30.3736 0.313053 31.1241 0.866685 31.6777C1.42032 32.2313 2.1708 32.543 2.95375 32.5444H5.28062C5.14787 33.1388 4.89761 33.7007 4.54453 34.197C4.19146 34.6933 3.74272 35.114 3.22469 35.4344C3.06368 35.5278 2.93003 35.6618 2.83712 35.8231C2.74422 35.9844 2.69532 36.1673 2.69532 36.3534C2.69532 36.5396 2.74422 36.7225 2.83712 36.8837C2.93003 37.045 3.06368 37.1791 3.22469 37.2725C4.21033 37.8461 5.33024 38.1485 6.47062 38.1491C9.89719 38.1491 13.9081 35.2378 13.9081 31.4819C13.9081 31.2001 13.7962 30.9298 13.5969 30.7306C13.3977 30.5313 13.1274 30.4194 12.8456 30.4194C12.5638 30.4194 12.2936 30.5313 12.0943 30.7306C11.8951 30.9298 11.7831 31.2001 11.7831 31.4819C11.7831 33.8831 8.82406 36.0241 6.47062 36.0241C6.2609 36.0254 6.05137 36.0112 5.84375 35.9816C6.92244 34.7322 7.51798 33.1378 7.5225 31.4872C7.5225 31.2054 7.41056 30.9351 7.2113 30.7359C7.01204 30.5366 6.74179 30.4247 6.46 30.4247H2.95375C2.73346 30.4233 2.52268 30.3348 2.36741 30.1785C2.21214 30.0223 2.125 29.8109 2.125 29.5906V2.95375C2.12639 2.73438 2.21415 2.52439 2.36927 2.36927C2.52439 2.21415 2.73438 2.12639 2.95375 2.125H46.2825C46.5019 2.12639 46.7119 2.21415 46.867 2.36927C47.0221 2.52439 47.1099 2.73438 47.1113 2.95375V27.3913C47.1113 27.673 47.2232 27.9433 47.4224 28.1426C47.6217 28.3418 47.892 28.4538 48.1738 28.4538C48.4555 28.4538 48.7258 28.3418 48.9251 28.1426C49.1243 27.9433 49.2363 27.673 49.2363 27.3913V2.95375C49.2348 2.1708 48.9232 1.42032 48.3696 0.866685C47.8159 0.313053 47.0655 0.0014044 46.2825 0V0Z" fill="#E0E0E0"/>
<path d="M25.0111 7.10815C23.666 7.10956 22.3764 7.64453 21.4252 8.59568C20.4741 9.54683 19.9391 10.8365 19.9377 12.1816C19.9377 12.4634 20.0496 12.7336 20.2489 12.9329C20.4481 13.1321 20.7184 13.2441 21.0002 13.2441C21.282 13.2441 21.5522 13.1321 21.7515 12.9329C21.9507 12.7336 22.0627 12.4634 22.0627 12.1816C22.0627 11.3996 22.3733 10.6497 22.9263 10.0967C23.4792 9.54379 24.2291 9.23315 25.0111 9.23315C25.7931 9.23315 26.543 9.54379 27.096 10.0967C27.6489 10.6497 27.9596 11.3996 27.9596 12.1816C27.9596 13.2441 27.4283 13.8816 26.4614 14.9069C25.3405 16.1075 23.9486 17.595 23.9486 20.416C23.9486 20.6978 24.0606 20.968 24.2598 21.1673C24.4591 21.3665 24.7293 21.4785 25.0111 21.4785C25.2929 21.4785 25.5632 21.3665 25.7624 21.1673C25.9617 20.968 26.0736 20.6978 26.0736 20.416C26.0736 18.4344 26.9714 17.4728 28.0127 16.3572C29.0539 15.2416 30.0792 14.1419 30.0792 12.1816C30.0778 10.8374 29.5436 9.54855 28.5936 8.59756C27.6436 7.64656 26.3553 7.11097 25.0111 7.10815Z" fill="#E0E0E0"/>
<path d="M25.0112 25.4521C25.6714 25.4521 26.2065 24.917 26.2065 24.2568C26.2065 23.5967 25.6714 23.0615 25.0112 23.0615C24.351 23.0615 23.8159 23.5967 23.8159 24.2568C23.8159 24.917 24.351 25.4521 25.0112 25.4521Z" fill="#E0E0E0"/>
</g>
<defs>
<clipPath id="clip0">
<rect width="68" height="68" fill="white"/>
</clipPath>
</defs>
</svg>
