<svg width="68" height="68" viewBox="0 0 68 68" fill="none" xmlns="http://www.w3.org/2000/svg">
<path d="M59.3974 9.01198H53.6624V3.27714C53.6625 1.47461 52.1876 0 50.386 0H8.60224C6.79984 0 5.32523 1.47461 5.32523 3.27714V55.7108C5.32523 57.5131 6.79984 58.9879 8.60237 58.9879H14.3373V64.7229C14.3373 66.5253 15.8113 68 17.6145 68H45.4691C47.2707 68 49.8203 66.989 51.1319 65.7544L60.2865 57.1373C61.5998 55.9027 62.673 53.417 62.673 51.6146L62.6746 12.2894C62.6745 10.4867 61.1997 9.01198 59.3974 9.01198ZM14.3371 12.2892V56.5301H8.60224C8.15824 56.5301 7.78305 56.1549 7.78305 55.7109V3.27714C7.78305 2.83315 8.15824 2.45796 8.60224 2.45796H50.3862C50.8294 2.45796 51.2054 2.83315 51.2054 3.27714V9.01211H17.6142C15.811 9.01211 14.3371 10.4867 14.3371 12.2892ZM58.6019 55.3478L49.4473 63.9642C49.2598 64.1405 49.0155 64.3133 48.7459 64.4778V56.9397C48.7459 56.3768 48.9729 55.8704 49.3473 55.4936C49.725 55.1192 50.2313 54.8916 50.7942 54.8916H58.9911C58.864 55.0642 58.7338 55.2232 58.6019 55.3478ZM60.2149 51.6143C60.2149 51.8576 60.1706 52.1394 60.1035 52.4335H50.794C48.3077 52.4384 46.293 54.453 46.288 56.9395V65.4427C45.9955 65.5018 45.7137 65.5418 45.4688 65.5418H17.6142V65.5419C17.1693 65.5419 16.795 65.1667 16.795 64.7227V12.2891C16.795 11.8451 17.1694 11.4699 17.6142 11.4699H59.3972C59.8412 11.4699 60.2164 11.8451 60.2164 12.2891L60.2149 51.6143Z" fill="#E0E0E0"/>
<path d="M50.3863 20.4819H26.6274C25.9482 20.4819 25.3985 21.0316 25.3985 21.7108C25.3985 22.39 25.9483 22.9398 26.6274 22.9398H50.3863C51.0647 22.9398 51.6152 22.39 51.6152 21.7108C51.6152 21.0316 51.0647 20.4819 50.3863 20.4819Z" fill="#E0E0E0"/>
<path d="M50.3863 36.8674H26.6274C25.9482 36.8674 25.3985 37.4171 25.3985 38.0963C25.3985 38.7755 25.9483 39.3253 26.6274 39.3253H50.3863C51.0647 39.3253 51.6152 38.7755 51.6152 38.0963C51.6152 37.417 51.0647 36.8674 50.3863 36.8674Z" fill="#E0E0E0"/>
<path d="M39.7358 45.0598H26.6275C25.9483 45.0598 25.3986 45.6095 25.3986 46.2887C25.3986 46.9679 25.9483 47.5176 26.6275 47.5176H39.7358C40.4142 47.5176 40.964 46.9679 40.964 46.2887C40.964 45.6095 40.4142 45.0598 39.7358 45.0598Z" fill="#E0E0E0"/>
<path d="M50.3863 28.6743H26.6274C25.9482 28.6743 25.3985 29.224 25.3985 29.9032C25.3985 30.5824 25.9483 31.1321 26.6274 31.1321H50.3863C51.0647 31.1321 51.6152 30.5824 51.6152 29.9032C51.6152 29.224 51.0647 28.6743 50.3863 28.6743Z" fill="#E0E0E0"/>
</svg>
