<svg width="1042" height="489" viewBox="0 0 1042 489" fill="none" xmlns="http://www.w3.org/2000/svg">
<path d="M2.00024 471C4.50024 471 25.4468 469.779 30.1741 466.327C36.9205 461.297 50.4626 448.969 50.7088 441.029C50.8565 435.95 46.2276 437.183 45.292 432.005C43.6177 423.178 45.3904 406.067 47.4094 383.334C48.1481 375.296 38.2994 305.075 30.7651 301.376C29.2385 313.359 38.3486 361.39 36.4773 373.323C34.9508 383.087 40.4661 393.443 42.7313 403.157C46.2276 418.198 36.2311 427.123 39.8752 433.633C44.0116 440.98 51.8414 433.386 44.3563 441.818C40.3184 446.355 38.2501 448.722 35.7879 454.59C33.8182 459.275 30.8636 459.965 26.9733 463.467C22.5414 467.461 17.4201 476.337 25.9392 478.211C34.5569 480.134 37.8069 480.479 43.8147 477.619C48.0496 475.647 53.3679 469.384 60.459 464.551C67.4024 459.867 76.1678 456.661 76.414 453.752C77.3496 443.791 72.6222 435.457 66.5652 433.928C82.1262 438.81 67.6978 397.486 74.5427 380.178C83.1111 358.579 82.7172 333.282 90.4977 313.409C93.2553 306.406 89.6113 275.487 89.2173 267.548C88.5772 254.678 64.0045 268.682 51.3489 260.102C42.682 254.184 41.8941 244.026 40.9093 235.101C37.1175 200.73 41.254 233.473 36.4773 205.168C34.7538 195.009 48.4436 175.285 44.898 164.091C44.4548 168.973 42.7805 179.525 39.6289 202.357C38.5948 209.754 40.0721 210.494 40.4168 220.751C40.8108 231.895 34.0644 253.938 46.6216 262.666C50.4626 265.329 51.8414 270.605 54.402 275.192C56.5195 278.989 59.2772 282.588 59.7204 286.533C55.1407 289.246 51.3982 282.49 48.936 278.841C37.8562 287.668 40.4661 295.212 34.7046 289.147C27.121 281.06 31.4545 268.091 28.1059 258.623C8.90088 203.738 15.6965 210.937 33.769 203.442C25.2006 199.743 21.852 202.949 13.8745 204.527C11.5601 182.829 15.8935 163.745 19.1928 154.179C29.9772 123.063 68.4365 131.988 66.2205 113.447C65.0879 103.831 68.5842 83.0209 62.872 81.6401C60.6068 83.4647 61.8378 87.9028 62.872 91.9464C64.0538 96.6804 60.853 104.373 63.6599 100.724C65.2356 111.03 75.5768 119.019 90.8916 115.518C109.555 111.228 107.487 80.6539 100.248 72.8625C89.2666 61.0275 75.3306 65.515 65.9743 80.2101C57.2582 74.4405 64.0538 64.0849 67.5501 62.5562C62.2318 60.781 58.5385 65.2684 53.6634 61.9152C61.3454 43.0285 92.1227 43.8668 100.937 60.5837C100.642 59.2523 100.346 52.891 100.248 51.5595C102.218 53.1869 108.816 55.9977 108.816 67.734C109.949 65.1698 113.494 62.6055 110.835 54.7649C125.805 59.9427 117.188 77.2513 109.604 85.3879C119.699 83.6619 111.574 91.6506 110.392 97.1736C108.816 104.521 108.816 95.5463 106.945 114.137C106.305 120.202 105.615 120.055 109.604 124.887C96.4562 133.369 79.2701 133.961 65.4326 123.753C69.963 136.87 86.2135 136.525 96.3577 135.44C111.229 133.911 112.46 123.654 118.419 123.013C121.817 122.619 127.972 126.86 131.124 128.092C135.654 129.868 141.563 137.708 144.469 141.456C150.673 149.543 156.435 166.803 158.454 173.312C169.091 207.535 164.806 200.631 151.461 208.62C166.087 199.004 163.821 215.129 166.727 227.26C168.598 235.051 165.693 246.64 169.288 254.875C171.307 259.609 174.163 261.779 174.36 264.491C175.935 282.638 173.424 284.758 158.454 280.912C159.045 269.028 159.242 282.983 161.015 263.899C161.606 257.587 154.613 246.886 151.954 240.919C147.719 231.451 145.749 224.745 150.87 214.044C147.916 215.425 147.374 217.397 144.518 219.468C132.306 203.393 122.26 180.364 129.745 162.266C130.237 173.756 137.23 189.24 137.525 200.73C137.821 211.332 142.056 217.496 142.597 228.098C144.469 262.814 122.26 252.902 94.4371 253.494C85.8687 253.691 77.9405 253.494 70.9479 248.316C73.7056 247.182 65.6788 248.119 105.615 247.281C140.677 246.541 143.829 259.905 139.397 298.714C138.264 308.428 136.245 324.307 135.605 333.725C134.325 352.366 134.669 351.922 138.806 363.017C142.942 374.211 135.457 384.813 135.112 396.5C134.669 410.949 139.2 418.346 139.741 423.129C140.381 429.194 130.73 427.666 135.457 436.246C137.279 439.649 159.39 462.53 150.181 463.861C116.548 468.842 121.029 442.41 116.695 437.923C100.297 420.861 118.468 405.376 106.502 356.656C96.6039 316.367 85.3763 305.716 89.2173 342.651C92.0735 370.217 104.483 353.697 102.562 391.914C101.922 404.686 110.983 424.51 101.282 433.09C105.123 434.126 107.536 433.879 110.146 430.92C113.002 437.43 103.104 445.468 105.96 451.632C108.57 457.204 110.737 454.689 114.479 458.437C120.536 473.181 141.859 473.674 149.196 468.94C153.382 466.277 157.863 469.631 162.935 471.406C175.64 475.844 202.921 473.428 222.717 469.877C265.904 462.135 250.786 465.39 252.411 437.824C253.1 426.729 244.433 433.978 246.846 423.425C250.884 405.968 253.346 385.158 254.972 368.294C255.513 362.623 252.115 349.999 252.608 344.328C253.74 332.443 251.475 332.246 249.998 320.559C247.782 302.856 247.979 297.284 242.907 268.485C234.634 278.594 228.872 333.331 213.804 365.877C208.535 377.219 205.285 415.239 199.178 426.137C197.652 428.8 193.86 427.123 193.663 430.427C194.5 430.92 195.387 431.315 196.322 431.66C211.933 459.571 189.773 449.511 187.606 459.127C186.326 464.897 166.825 477.619 163.92 463.22C162.886 458.092 172.833 450.497 174.557 446.404C177.265 439.994 169.041 433.139 185.981 431.66C181.5 426.581 173.473 432.301 171.799 424.263C170.026 415.831 174.36 398.275 175.837 389.843C178.989 372.041 178.792 375.74 183.273 358.234C186.671 344.969 197.947 334.071 195.288 299.355C192.678 265.083 203.315 244.421 207.993 237.517C218.384 222.082 246.157 231.55 244.236 232.438C239.214 234.706 228.626 227.605 220.993 230.169C215.478 232.043 217.793 200.385 219.122 193.53C225.77 158.617 204.694 182.188 196.076 138.054C193.368 179.032 204.497 168.282 188 208.817C182.633 221.983 180.367 230.958 179.481 237.813C177.954 249.648 182.337 259.362 180.811 270.211C180.564 272.036 177.807 274.6 177.314 269.767C175.64 252.163 165.2 262.765 166.678 277.706C166.875 279.58 164.363 282.49 161.359 279.087C156.632 273.663 157.124 267.992 160.128 262.173C158.503 266.167 158.602 269.915 158.897 273.959C158.946 274.649 158.011 274.945 157.666 274.353C150.821 263.258 158.799 260.595 166.234 243.385C170.913 232.586 171.848 213.304 173.523 190.571C174.015 184.161 175.295 168.036 177.364 161.921C179.875 154.623 184.11 164.781 187.902 159.357C180.564 151.615 174.113 156.349 172.39 160.639C180.958 130.016 177.905 129.917 181.057 121.978C184.011 114.532 202.872 89.5301 216.02 109.847C222.569 119.907 242.562 128.684 256.547 98.9981C261.275 88.9384 251.18 86.8673 252.263 78.4348C252.953 73.1584 268.218 64.578 267.676 58.1181C267.036 50.2774 261.964 44.7544 258.123 44.7544C250.441 44.7544 256.153 37.5055 253.839 31.1442C250.096 20.9365 242.168 22.9583 239.952 26.2622C241.676 17.7312 231.482 16.4984 224.44 18.0271C219.664 19.0626 211.637 21.7255 211.736 28.2347C205.58 24.1418 200.557 36.8151 199.868 42.2395C198.341 54.4197 206.023 62.7535 211.637 63.5425C197.406 78.139 201.838 68.5723 197.652 77.5472C195.584 82.0346 205.925 108.762 219.27 86.4728C223.357 79.6676 207.55 66.156 219.221 70.5448C225.081 72.7639 227.691 79.4211 234.979 80.1608C251.081 81.7388 259.502 51.1157 245.074 39.6752C239.903 35.5823 234.634 30.9962 229.808 32.6729C219.024 36.4699 216.955 41.845 216.561 49.8829C216.463 51.9047 213.311 51.313 213.311 53.2362C213.41 61.7672 217.3 68.523 220.501 64.0849C230.005 93.2286 219.27 85.7824 221.043 89.6781C238.573 128.536 250.146 94.3628 250.195 94.3134C253.839 92.1437 278.215 105.803 281.071 108.614C288.359 115.666 286.438 122.915 289.885 131.742C293.874 142.097 299.734 151.319 286.389 150.135C295.253 144.661 291.461 150.826 295.45 160.836C297.715 166.606 299.636 166.655 302.393 173.46C310.469 193.678 311.503 224.696 313.719 235.347C315.049 241.807 316.969 243.977 323.519 253.445C325.538 256.354 328.591 267.696 327.557 268.189C323.863 275.29 321.5 265.921 320.466 264.491C322.485 267.006 323.962 271.789 322.829 274.896C321.647 278.052 320.022 278.002 319.136 274.748C316.428 264.787 310.371 259.017 307.958 261.631C309.435 265.428 310.715 267.154 309.386 271.148C304.363 268.83 301.802 261.976 301.31 251.423C301.064 246.245 303.033 242.103 302.048 235.939C297.567 208.324 282.597 196.193 275.703 148.705C256.055 157.532 256.104 191.706 262.703 226.865C264.131 234.41 274.275 226.422 278.904 230.021C286.438 235.89 282.646 289.098 282.449 291.613C281.317 308.231 289.639 416.077 281.563 430.526C276.146 440.142 272.256 434.767 264.673 434.126C263.786 432.893 257.04 432.942 255.759 432.252C265.904 454.64 245.369 474.069 263.195 472.984C298.207 470.913 276.934 463.91 275.605 454.788C274.669 448.278 285.847 463.713 295.056 466.573C367.198 487.284 395.661 436.936 397.778 425.052C398.615 420.367 394.627 419.726 394.774 414.795C395.316 399.114 393.543 383.926 395.611 368.195C397.975 350.393 396.055 332.986 393.199 315.283C392.214 309.02 391.081 271.986 387.142 267.943C380.198 301.081 371.975 332.739 370.645 362.179C369.611 385.158 371.778 410.11 366.853 420.614C364.785 425.101 358.236 429.589 354.247 430.427C360.058 430.033 365.425 435.063 366.311 439.353C367.247 443.643 359.319 442.558 355.379 449.758C351.144 453.851 347.008 461.494 343.413 463.565C324.356 474.365 317.954 462.628 326.129 454.837C337.061 444.481 334.845 435.802 343.019 433.879C339.474 433.238 335.288 431.709 332.58 429.194C340.262 417.409 338.981 403.059 337.996 389.744C334.451 340.531 347.894 348.519 343.265 329.731C340.754 319.474 342.822 308.428 342.921 298.22C343.118 262.074 342.379 258.031 351.194 237.763C361.633 244.273 383.695 236.876 386.206 239.736C382.414 250.141 356.512 248.563 352.474 240.969C343.512 224.005 366.41 221.54 358.826 205.316C348.928 184.161 353.902 162.217 348.042 144.218C345.087 135.193 342.478 127.156 339.769 118.772C335.337 134.109 345.678 147.916 342.478 163.4C340.754 171.833 331.595 169.614 327.163 161.23C341.394 162.414 342.281 168.085 338.833 181.153C329.822 215.08 316.428 213.156 321.894 245.949C323.666 256.551 323.174 270.112 315.787 273.17C315.886 272.479 315.837 271.345 315.886 270.507C309.73 279.827 308.795 263.505 306.037 267.154C298.06 249.697 306.48 243.73 310.42 227.457C313.178 216.165 309.681 202.406 311.306 183.322C311.897 176.616 315.59 174.2 316.969 164.189C318.151 155.412 319.727 145.155 321.894 133.024C325.981 110.044 321.352 100.379 353.163 88.8891C362.175 85.6345 369.414 77.6458 370.349 73.8981C375.028 55.258 361.781 54.1238 362.126 37.9C362.273 30.5031 366.41 19.9502 375.028 11.2219C393.642 -7.61542 430.033 19.2599 421.957 43.8175C418.657 53.8772 405.509 76.4623 393.986 77.1034C389.554 77.35 386.107 76.9061 383.251 73.4543C379.558 69.0161 374.831 59.844 374.535 54.4197C374.387 52.0527 370.99 54.321 369.808 49.6364C368.626 44.9517 369.906 29.8127 379.706 42.9299C385.763 20.0982 395.414 30.9469 400.881 33.8071C401.471 32.8208 401.373 28.2841 401.964 27.2978C406.248 27.5937 407.824 33.6098 410.188 38.5904C412.699 32.2291 412.256 24.0432 409.104 18.6188C418.854 24.6349 418.953 39.2807 415.457 49.7843C411.911 60.3372 404.525 76.9061 402.653 83.8592C401.176 89.2836 403.146 87.5083 401.57 93.5738C398.714 104.472 386.797 110.488 376.554 105.853C372.27 103.929 368.921 100.773 364.982 97.716C368.527 120.646 399.354 117.688 405.657 100.28C408.563 92.193 408.218 91.3547 407.627 84.1058C413.585 84.9441 408.956 85.5851 414.718 87.7056C450.321 101.069 443.723 133.468 456.969 162.217C464.405 178.342 469.329 177.405 470.61 209.31C471.102 221.145 469.92 225.682 473.318 233.177C484.053 257.045 482.871 257.834 477.061 263.011C477.356 264.54 471.89 262.913 464.897 262.074C473.17 251.275 471.545 238.651 460.072 254.776C458.053 257.587 460.465 245.358 459.628 241.856C458.791 238.306 467.015 232.339 458.496 212.959C450.518 194.812 437.025 177.208 434.465 163.302C441.802 162.463 440.669 161.526 447.859 160.737C441.556 165.521 439.389 165.175 433.578 170.501C427.521 154.524 424.714 149.543 424.714 131.742C425.552 142.393 415.457 164.682 415.998 176.764C417.377 208.916 434.415 240.426 422.302 244.273C415.801 246.344 400.043 241.61 396.744 248.661C405.312 249.253 413.191 243.829 421.07 245.505C430.378 247.478 427.374 288.654 428.703 344.18C428.802 347.779 422.449 389.498 424.173 407.891C424.518 411.491 426.93 417.162 426.093 420.614C424.764 426.038 422.006 422.734 419.593 426.186C415.703 431.709 446.776 457.401 445.741 459.916C447.859 466.277 431.215 468.743 424.764 466.918C418.608 465.143 417.574 457.007 412.601 453.703C407.578 450.399 391.081 448.574 395.907 443.791C402.062 437.627 398.615 428.159 402.506 434.471C407.085 441.818 421.858 447.391 429.196 443.396C439.389 447.835 446.726 453.604 466.473 452.371C468.394 467.017 474.057 465.587 481.492 467.116C480.064 476.041 482.871 483.981 490.406 484.326C499.319 484.72 503.751 473.526 502.47 463.319L555.85 462.678C573.529 454.146 571.411 408.532 571.855 410.11C574.465 419.43 578.552 427.271 573.824 447.785C589.385 434.126 599.628 462.382 591.306 478.655C582.294 496.259 567.57 483.685 570.23 462.53C572.101 447.736 589.878 442.509 593.522 455.725C602.977 490.194 573.874 492.364 580.915 459.817C582.59 452.026 587.908 451.04 588.007 444.678C588.351 409.568 586.923 409.864 586.332 393.739C586.086 386.786 585.249 372.732 585.643 363.954C586.529 344.574 571.707 349.801 573.036 346.152C574.563 342.01 594.999 342.355 598.692 339.643C595.886 361.784 590.863 400.938 596.969 428.948C602.583 454.689 627.845 495.914 650.201 467.559C675.217 435.802 676.3 365.137 667.24 329.78C656.505 287.766 646.656 275.389 634.985 283.476C640.697 282.835 646.705 278.594 642.273 272.973C642.618 272.43 636.856 269.175 631.489 267.893C619.178 264.688 604.454 252.311 608.295 219.814C614.352 269.915 594.95 256.749 611.151 299.7C614.352 308.182 606.079 311.239 596.526 305.42C585.101 298.418 575.203 291.07 562.892 293.486C575.893 296.396 616.469 276.523 605.439 321.94C599.086 348.026 568.408 335.057 567.275 345.511C565.748 359.812 568.802 365.137 559.642 392.605C556.491 402.073 555.85 410.061 554.57 416.176C554.324 417.409 543.146 417.606 543.146 418.74C543.096 419.874 551.172 420.269 551.419 421.304C556.737 444.284 538.467 445.172 534.873 430.871C530.982 439.303 524.876 451.829 532.952 458.239C537.63 461.889 556.638 460.804 554.57 448.032C532.312 451.829 524.285 449.166 528.52 421.304C531.77 399.755 523.448 391.717 527.24 366.568C531.032 341.468 517.49 319.03 549.153 322.679C521.626 345.758 512.614 330.274 515.421 337.276C517.834 343.292 521.429 354.535 522.808 362.129C524.088 369.132 525.27 372.781 518.868 420.022C517.884 427.419 520.001 438.958 523.153 445.911C524.433 448.722 523.005 450.99 519.656 452.963C516.603 454.788 511.334 453.407 505.671 455.083C502.027 456.168 498.531 460.212 494.247 461.445C470.757 468.102 468.837 457.648 488.534 443.643C499.023 436.197 502.076 432.4 500.451 423.376C500.205 422.093 513.353 418.839 505.08 420.121C504.538 420.22 495.084 421.304 494.887 420.762C490.75 406.757 490.947 391.273 489.174 373.027C487.648 357.297 485.383 348.815 484.546 334.317C483.856 322.088 483.314 314.05 503.8 303.941C505.77 302.954 505.77 302.856 507.641 302.018C475.829 258.623 436.435 407.645 485.924 440.586L473.515 448.476C463.519 437.578 454.408 416.866 452.931 376.825C451.109 326.526 487.648 250.042 515.865 297.875L512.368 299.453C532.46 290.626 542.702 292.648 553.339 292.993C542.505 290.972 527.683 301.031 530.49 292.155C534.282 280.073 529.21 285.794 531.77 274.945C534.183 264.639 538.221 257.439 548.316 256.502C553.191 256.058 559.396 260.053 555.949 253.297C553.634 248.76 538.96 251.324 534.331 246.294C527.289 238.602 531.77 222.082 540.043 216.362C543.244 242.399 539.108 265.033 525.713 272.825C526.649 272.529 525.369 281.947 522.906 282.539C517.982 283.772 493.508 285.794 491.735 278.101C489.371 267.745 519.41 265.674 521.922 270.162C515.815 273.712 510.792 276.227 501.239 273.022C469.822 262.518 489.174 263.455 464.996 267.943C458.643 267.302 454.802 264.146 455.443 257.735C455.886 253.543 452.291 252.212 460.515 246.294C480.852 231.649 462.681 254.973 499.91 251.374C514.387 249.993 516.209 260.595 517.687 227.161C518.376 212.367 522.66 195.552 532.312 187.07C537.827 182.188 553.536 185.689 555.309 170.6C553.044 182.731 558.657 196.588 573.627 193.432C585.692 190.867 585.347 178.638 583.181 173.707C598.101 184.21 589.878 200.779 589.878 200.779C589.878 200.779 606.965 210.099 606.965 188.204C606.965 171.537 588.154 175.728 599.086 164.781C620.704 143.133 613.564 115.321 580.768 103.929C557.525 95.8421 547.479 115.321 549.498 124.197C550.138 127.106 558.805 118.871 563.828 120.153C572.199 122.274 572.643 126.021 573.874 133.369C576.188 146.782 602.533 138.793 575.893 158.913C542.752 183.914 542.062 136.18 558.313 115.271C568.457 102.154 591.897 110.932 596.033 126.317C601.795 147.916 583.279 161.378 581.556 164.534C578.109 170.748 593.276 173.657 599.776 175.63C614.549 180.166 625.383 180.117 628.977 189.634C631.341 195.897 632.621 219.123 634.049 224.005C634.542 225.731 642.716 184.309 616.568 173.411C608.935 170.205 628.633 173.263 634.345 174.052C644.095 175.383 643.603 183.076 643.898 191.854C644.341 206.499 636.019 227.654 635.97 229.084C635.33 239.884 634.246 241.265 637.25 242.744C648.823 248.464 648.035 238.947 657.489 249.45C674.331 241.215 680.585 267.696 667.781 276.227C662.414 270.704 649.364 278.15 651.974 250.535C643.061 255.467 644.686 260.99 650.004 264.737C645.425 268.633 643.652 270.211 638.58 269.816C636.512 269.669 632.375 270.605 630.652 270.112C618.636 271.641 611.594 268.189 608.738 276.819C606.177 284.462 612.678 283.328 618.932 283.821C626.072 284.413 625.038 284.857 631.784 284.117C614.598 296.051 600.662 347.78 601.795 382.249C604.405 462.283 630.898 472.688 647.493 458.831C669.85 440.142 673.937 356.754 656.701 313.211C627.451 239.292 586.628 418.148 634.148 453.16C652.565 468.447 654.978 474.956 697.574 471.159C738.397 467.165 746.03 466.524 738.249 447.44C732.635 433.633 738.889 388.66 729.73 381.065C727.563 397.536 746.867 444.826 743.223 454.59C740.514 461.889 714.711 460.113 723.525 469.877C726.381 473.033 739.431 470.37 743.469 470.568C751.594 470.962 757.552 473.921 759.276 467.806C760.409 463.812 758.094 458.239 759.769 454.442C772.818 424.263 746.916 390.139 729.73 367.998C720.078 355.62 721.309 341.665 723.23 325.885C726.824 296.544 725.249 288.752 733.226 285.399C746.67 279.778 726.775 331.309 718.896 343.144C714.218 327.66 712.79 323.715 708.358 308.132C700.775 281.454 702.941 273.86 704.222 249.598C704.714 240.624 704.517 242.3 705.305 233.621C706.832 217.496 729.139 207.831 714.514 193.185C707.422 186.084 714.907 176.764 715.203 165.57C716.089 170.156 714.169 180.117 714.07 185.936C713.923 193.53 715.055 201.469 710.869 207.633C703.877 217.94 694.767 223.611 685.558 232.931C674.675 243.977 681.914 241.067 679.206 253.938C678.172 258.82 679.206 265.23 674.134 268.584C671.967 270.014 673.1 265.871 674.134 263.504C675.513 260.447 670.44 258.721 668.766 258.672C664.236 262.074 662.315 265.378 666.008 271.148C667.486 273.466 665.467 276.424 662.758 275.931C656.997 274.896 653.599 273.17 653.107 258.672C652.959 253.346 655.766 251.324 661.133 243.878C664.334 239.391 663.891 237.566 669.111 232.931C680.043 223.118 681.964 212.713 690.532 201.322C695.899 194.171 694.028 200.089 694.127 190.917C694.176 184.753 693.486 176.468 705.65 179.969C699.445 183.52 691.221 183.421 691.911 177.208C692.452 172.375 692.502 168.529 692.994 163.844C696.786 124.986 715.4 128.684 720.817 127.649C726.677 126.514 731.109 118.378 728.893 105.754C716.533 92.7354 717.074 75.624 723.968 69.0162C731.749 61.57 747.31 65.9588 754.795 75.0323C753.318 62.0631 733.226 43.4723 723.821 78.8786C721.26 88.4453 718.108 95.4476 723.821 105.606C717.616 106.987 720.915 119.907 720.029 117.688C700.972 93.4751 708.112 64.5287 711.756 59.7454C718.502 50.9185 736.575 35.6316 743.518 50.524C750.461 47.5159 753.81 47.7625 760.704 56.7373C767.992 66.2547 767.648 81.9853 765.924 93.8203C765.185 98.8502 758.045 99.294 756.765 94.3134C756.223 92.2916 755.78 90.0726 755.435 87.8042C751.397 94.0176 758.34 105.951 735.393 107.283C730.124 107.578 733.817 112.214 732.487 119.413C729.631 134.7 770.208 133.221 752.431 107.726C752.677 107.48 754.943 117.638 755.189 117.392C766.17 131.84 773.36 119.907 783.405 127.698C794.141 136.032 810.046 170.994 792.762 172.129C794.879 175.679 797.637 174.496 799.902 171.044C803.645 182.829 803.743 197.13 806.205 207.584C809.505 221.638 805.861 234.065 813.05 242.892C823.391 255.565 828.857 266.019 814.971 271.493C816.793 274.846 806.648 278.2 803.251 275.29C798.819 271.493 795.913 267.795 795.175 262.124C794.929 260.151 796.898 258.623 798.819 259.264C804.974 261.483 813.887 263.159 816.103 255.762C811.376 249.894 804.629 247.182 802.512 245.308C797.391 240.821 791.531 225.682 788.773 209.655C786.557 196.883 777.792 188.895 777.841 166.26C773.704 234.558 799.262 248.809 785.523 256.009C776.265 260.842 761.344 259.214 752.086 255.417C773.212 255.664 796.307 220.997 776.511 286.731C767.549 316.318 758.587 337.128 747.605 351.478C755.533 351.478 770.307 368.688 775.822 383.827C778.974 392.457 784.735 427.123 785.474 435.457C786.36 445.714 773.704 442.657 765.678 449.708C764.693 450.547 765.382 454.886 764.841 455.774C758.685 465.735 761.147 470.765 771.981 470.37C791.334 469.68 794.436 455.774 789.856 446.01C792.072 450.251 796.307 471.603 814.133 471.603C863.426 472.244 864.756 467.214 905.284 466.524C936.159 465.981 915.576 456.76 919.072 421.748C920.303 409.519 919.712 409.469 915.871 397.684C908.041 373.816 909.568 336.043 902.428 315.726C898.439 304.385 889.526 293.289 888.344 281.158C888.344 281.208 883.518 425.151 883.518 425.249C882.976 433.287 881.4 429.441 877.362 432.794C886.325 430.822 887.211 452.223 880.711 455.971C877.953 457.598 871.108 456.957 868.154 458.091C865.642 459.028 846.831 470.863 833.24 467.116C829.547 466.129 828.463 461.297 831.467 458.88C835.604 455.527 838.411 458.93 842.35 453.16C852.396 438.564 848.456 440.684 873.768 439.895C864.805 437.38 854.07 443.495 849.343 435.704C843.975 426.827 851.214 404.144 852.15 394.478C853.233 382.643 847.668 377.466 846.684 365.631C845.649 353.204 850.278 343.243 850.032 331.309C849.786 317.009 837.475 266.759 838.164 258.08C839.642 240.13 861.161 246.147 873.177 241.659C864.657 238.947 844.024 244.569 839.543 236.531C836.687 231.402 849.392 220.11 839.937 197.475C837.13 211.973 822.751 223.068 820.338 234.361C819.747 237.221 819.6 238.947 821.569 242.103C824.967 247.577 831.566 265.23 825.361 261.779C820.781 259.264 822.209 251.127 817.728 253.494C814.38 259.806 808.815 266.513 812.459 272.282C814.478 275.438 810.637 279.186 807.486 277.213C805.861 276.178 804.629 274.846 803.497 273.762C796.16 266.414 793.845 267.45 798.622 256.699C802.906 247.083 809.061 232.191 810.933 224.794C813.099 216.165 814.035 207.535 816.054 201.815C818.91 193.777 820.88 187.267 819.6 170.748C819.206 165.57 815.66 151.072 823.49 151.861C843.237 153.834 839.888 179.131 839.987 187.317C840.922 182.238 840.331 174.496 841.661 169.367C843.286 163.104 849.737 169.564 851.165 164.732C852.593 159.948 843.631 154.228 840.479 150.826C832.354 142.097 829.695 133.813 830.482 121.83C834.028 129.868 845.059 146.289 840.233 154.672C833.092 153.094 821.372 145.45 813.69 147.67C812.755 137.166 817.876 126.12 818.418 115.518C820.19 79.1252 849.638 91.5519 859.044 81.2949C861.998 78.0896 860.324 76.6596 861.851 72.9118C863.229 69.4106 869.533 74.2926 879.283 71.5311C885.34 69.8051 895.189 61.1755 892.529 58.266C890.461 55.9483 881.745 62.9014 879.283 63.8383C862.097 70.2983 853.922 51.4609 853.479 33.7577C853.331 28.432 853.528 23.5501 854.858 19.0626C862.491 -6.48123 894.401 -0.711676 903.708 19.0626C908.534 29.3196 901.935 37.6534 898.045 46.7762C892.431 59.9427 899.128 67.1916 889.082 72.1721C884.404 74.4898 871.502 77.2513 866.43 75.0816C853.085 69.3613 856.779 45.5927 856.779 34.3495C856.779 28.0868 855.695 18.5695 863.229 15.6601C869.188 13.3424 874.063 19.0626 879.283 21.0351C886.866 23.9446 890.707 18.8161 895.189 25.3253C897.995 29.3689 897.011 37.3575 898.833 42.0915C901.098 36.3713 906.859 37.2096 907.204 42.0915C907.795 50.3267 898.734 54.2224 896.764 59.9427C893.268 70.0517 901.984 74.3912 896.026 81.936C889.92 89.6781 877.658 91.7985 868.302 92.5875C877.658 94.9052 892.283 93.8696 898.143 85.8317C902.969 79.1745 900.802 74.4405 909.272 77.7445C919.86 81.8374 935.125 86.67 940.739 96.6311C943.891 102.302 962.899 139.04 951.08 139.878C953.444 145.894 953.395 154.475 954.724 170.452C955.364 177.947 962.258 183.125 961.421 200.039C960.929 209.754 964.031 223.019 964.031 231.747C964.081 242.596 972.994 254.037 967.281 263.307C965.656 265.921 953.001 273.515 949.948 272.578C943.448 270.556 953.148 258.08 949.8 252.606C946.796 252.705 945.122 257.094 943.989 261.236C943.546 262.913 941.33 262.814 941.034 261.088C940.247 256.502 940.591 251.374 942.413 246.196C943.94 241.807 949.061 236.974 949.11 233.572C949.357 220.405 940.345 217.2 938.523 204.477C937.637 198.215 938.178 185.542 936.75 180.314C933.303 167.789 925.227 158.617 924.735 156.053C922.42 144.316 933.993 145.45 944.925 141.752C939.163 142.985 926.409 143.231 921.239 145.549C918.284 139.533 910.75 125.676 918.481 120.301C924.045 137.166 921.731 172.178 924.39 199.694C925.523 211.48 932.565 226.076 921.977 234.312C915.477 239.391 895.041 242.596 888.541 235.84C899.818 235.594 926.902 225.534 929.019 237.566C933.451 262.37 942.364 277.657 939.409 330.076C938.966 337.868 944.58 341.665 949.357 369.97C952.902 390.928 955.266 413.76 953.346 429.293C952.213 438.662 946.895 436.295 941.724 439.599C946.304 441.128 949.652 445.468 951.967 449.56C955.758 456.168 957.039 464.847 949.849 466.327C933.106 469.828 925.424 472.639 926.803 448.87C926.803 448.87 942.61 468.299 948.372 469.581C954.084 470.863 1303 470.222 1303 470.222" stroke="#F5F5F5" stroke-width="3.873" stroke-miterlimit="10" stroke-linecap="round" stroke-linejoin="round"/>
<path d="M637.5 397C641.09 397 644 389.165 644 379.5C644 369.835 641.09 362 637.5 362C633.91 362 631 369.835 631 379.5C631 389.165 633.91 397 637.5 397Z" stroke="#F5F5F5" stroke-width="3.873" stroke-miterlimit="10" stroke-linecap="round" stroke-linejoin="round"/>
</svg>
