<svg width="153" height="106" viewBox="0 0 153 106" fill="none" xmlns="http://www.w3.org/2000/svg">
<path d="M150.585 28.8299H126.436V22.3846C126.436 21.3394 125.574 20.4684 124.539 20.4684H106.082L77.2762 0.261298C76.7587 -0.0870994 76.2413 -0.0870994 75.7238 0.261298L46.7452 20.6426H28.2886C27.2537 20.6426 26.3912 21.5136 26.3912 22.5588V29.0041H2.24239C1.03495 29.0041 0 30.0493 0 31.2687V37.0173C0 38.2366 1.03495 39.2818 2.24239 39.2818H4.31229V97.6385V104.606C4.31229 105.303 5.00225 106 5.69222 106H43.8129H66.9267H86.2458H109.36H147.48C148.17 106 148.86 105.303 148.86 104.606V97.6385V39.1076H150.758C151.965 39.1076 153 38.0625 153 36.8431V31.0945C152.828 29.8751 151.965 28.8299 150.585 28.8299ZM123.676 23.4297V28.8299H117.984L115.397 26.9137L110.222 23.2555H123.676V23.4297ZM76.4138 3.22268L104.875 23.0813L112.982 28.8299H109.187H103.15L77.2762 10.7132C76.7587 10.3648 76.2413 10.3648 75.7238 10.7132L49.6776 28.8299H43.8129H40.018L76.4138 3.22268ZM87.6257 96.2449V78.4766C87.6257 72.2054 82.6235 67.1537 76.5863 67.1537C70.549 67.1537 65.5468 72.2054 65.5468 78.4766V96.0707H54.5073V39.1076H98.8377V96.2449H87.6257ZM45.1928 39.1076H51.575V96.2449H45.1928V39.1076ZM101.425 39.1076H107.807V96.2449H101.425V39.1076ZM107.807 36.3205H100.045H52.9549H45.1928V31.7913H50.0225H102.805H107.807V36.3205ZM54.5073 28.8299L76.4138 13.5004L98.3202 28.8299H54.5073ZM29.3236 23.4297H42.7779L35.0158 28.8299H29.3236V23.4297ZM2.75986 31.7913H27.7711H35.3608H42.2604V36.3205H5.51973H2.75986V31.7913ZM42.2604 39.1076V96.2449H7.07215V39.1076H42.2604ZM7.07215 99.032H42.4329V103.213H7.07215V99.032ZM45.1928 99.032H52.9549H65.3743V103.213H45.1928V99.032ZM68.1342 97.6385V78.4766C68.1342 73.7732 71.929 69.9408 76.4138 69.9408C80.8985 69.9408 84.6934 73.7732 84.6934 78.4766V97.6385V103.213H68.1342V97.6385ZM87.6257 103.213V99.032H100.045H107.807V103.213H87.6257ZM145.928 103.213H110.567V99.032H145.928V103.213ZM145.928 96.2449H110.567V39.1076H145.928V96.2449ZM150.068 36.3205H147.308H110.567V31.7913H117.467H125.056H150.068V36.3205Z" fill="#E0E0E0"/>
<path d="M67.2721 42.0691C63.8223 42.0691 60.8899 45.0305 60.8899 48.5144V64.7149C60.8899 65.4117 61.5799 66.1085 62.2699 66.1085H72.2744C72.9643 66.1085 73.6543 65.4117 73.6543 64.7149V48.5144C73.4818 44.8563 70.7219 42.0691 67.2721 42.0691ZM70.7219 63.3214H63.6498V48.5144C63.6498 46.5983 65.3747 44.8563 67.2721 44.8563C69.1695 44.8563 70.7219 46.4241 70.7219 48.5144V63.3214Z" fill="#E0E0E0"/>
<path d="M85.7284 42.0691C82.2786 42.0691 79.3463 45.0305 79.3463 48.5144V64.7149C79.3463 65.4117 80.0362 66.1085 80.7262 66.1085H90.5582C91.2482 66.1085 91.9381 65.4117 91.9381 64.7149V48.5144C92.1106 44.8563 89.1783 42.0691 85.7284 42.0691ZM89.1783 63.3214H82.1061V48.5144C82.1061 46.5983 83.6585 44.8563 85.5559 44.8563C87.4533 44.8563 89.0058 46.4241 89.0058 48.5144V63.3214H89.1783Z" fill="#E0E0E0"/>
<path d="M11.9017 66.1085H21.7337C22.4237 66.1085 23.1136 65.4117 23.1136 64.7149V48.5144C23.1136 45.0305 20.3538 42.0691 16.7314 42.0691C13.2816 42.0691 10.3492 45.0305 10.3492 48.5144V64.7149C10.5217 65.5859 11.2117 66.1085 11.9017 66.1085ZM13.2816 48.5144C13.2816 46.5983 14.834 44.8563 16.7314 44.8563C18.6288 44.8563 20.1813 46.4241 20.1813 48.5144V63.3214H13.2816V48.5144Z" fill="#E0E0E0"/>
<path d="M27.2535 66.1085H37.258C37.9479 66.1085 38.6379 65.4117 38.6379 64.7149V48.5144C38.6379 45.0305 35.7056 42.0691 32.2557 42.0691C28.8059 42.0691 25.8735 45.0305 25.8735 48.5144V64.7149C25.8735 65.5859 26.5635 66.1085 27.2535 66.1085ZM28.6334 48.5144C28.6334 46.5983 30.1858 44.8563 32.0832 44.8563C33.9806 44.8563 35.7056 46.4241 35.7056 48.5144V63.3214H28.6334V48.5144Z" fill="#E0E0E0"/>
<path d="M11.9017 91.1931H21.7337C22.4237 91.1931 23.1136 90.4963 23.1136 89.7995V73.599C23.1136 70.1151 20.3538 67.1537 16.7314 67.1537C13.2816 67.1537 10.3492 70.1151 10.3492 73.599V89.7995C10.5217 90.6705 11.2117 91.1931 11.9017 91.1931ZM13.2816 73.599C13.2816 71.6829 14.834 69.9409 16.7314 69.9409C18.6288 69.9409 20.1813 71.5087 20.1813 73.599V88.4059H13.2816V73.599Z" fill="#E0E0E0"/>
<path d="M27.2535 91.1931H37.258C37.9479 91.1931 38.6379 90.4963 38.6379 89.7995V73.599C38.6379 70.1151 35.7056 67.1537 32.2557 67.1537C28.8059 67.1537 25.8735 70.1151 25.8735 73.599V89.7995C25.8735 90.6705 26.5635 91.1931 27.2535 91.1931ZM28.6334 73.599C28.6334 71.6829 30.1858 69.9409 32.0832 69.9409C33.9806 69.9409 35.7056 71.5087 35.7056 73.599V88.4059H28.6334V73.599Z" fill="#E0E0E0"/>
<path d="M115.742 66.1085H125.746C126.436 66.1085 127.126 65.4117 127.126 64.7149V48.5144C127.126 45.0305 124.194 42.0691 120.744 42.0691C117.294 42.0691 114.362 45.0305 114.362 48.5144V64.7149C114.362 65.5859 114.879 66.1085 115.742 66.1085ZM117.122 48.5144C117.122 46.5983 118.674 44.8563 120.571 44.8563C122.469 44.8563 124.194 46.5983 124.194 48.5144V63.3214H117.122V48.5144Z" fill="#E0E0E0"/>
<path d="M131.093 66.1085H140.925C141.615 66.1085 142.305 65.4117 142.305 64.7149V48.5144C142.305 45.0305 139.545 42.0691 135.922 42.0691C132.473 42.0691 129.54 45.0305 129.54 48.5144V64.7149C129.713 65.5859 130.403 66.1085 131.093 66.1085ZM132.473 48.5144C132.473 46.5983 134.025 44.8563 135.922 44.8563C137.82 44.8563 139.372 46.4241 139.372 48.5144V63.3214H132.3V48.5144H132.473Z" fill="#E0E0E0"/>
<path d="M115.742 91.1931H125.746C126.436 91.1931 127.126 90.4963 127.126 89.7995V73.599C127.126 70.1151 124.194 67.1537 120.744 67.1537C117.294 67.1537 114.362 70.1151 114.362 73.599V89.7995C114.362 90.6705 114.879 91.1931 115.742 91.1931ZM117.122 73.599C117.122 71.6829 118.674 69.9409 120.571 69.9409C122.469 69.9409 124.194 71.5087 124.194 73.599V88.4059H117.122V73.599Z" fill="#E0E0E0"/>
<path d="M131.093 91.1931H140.925C141.615 91.1931 142.305 90.4963 142.305 89.7995V73.599C142.305 70.1151 139.545 67.1537 135.922 67.1537C132.473 67.1537 129.54 70.1151 129.54 73.599V89.7995C129.713 90.6705 130.403 91.1931 131.093 91.1931ZM132.473 73.599C132.473 71.6829 134.025 69.9409 135.922 69.9409C137.82 69.9409 139.372 71.5087 139.372 73.599V88.4059H132.3V73.599H132.473Z" fill="#E0E0E0"/>
<path d="M71.9283 83.3541C71.2383 83.3541 70.5483 84.0509 70.5483 84.7477V91.7157C70.5483 92.4125 71.2383 93.1093 71.9283 93.1093C72.6182 93.1093 73.3082 92.4125 73.3082 91.7157V84.7477C73.3082 84.0509 72.6182 83.3541 71.9283 83.3541Z" fill="#E0E0E0"/>
</svg>
