<svg width="90" height="106" viewBox="0 0 90 106" fill="none" xmlns="http://www.w3.org/2000/svg">
<path d="M89.1294 22.6058C89.0398 22.0786 88.7531 21.6697 88.3278 21.4333L67.7337 0.839279C67.4972 0.413925 67.0882 0.127268 66.5612 0.037609C66.4109 0.00393421 66.256 -0.00679963 66.0984 0.00688075H16.7316C13.7284 0.00688075 11.432 2.30329 11.432 5.30645V10.606H6.13246C3.1293 10.606 0.832886 12.9024 0.832886 15.9056V100.7C0.832886 103.703 3.1293 106 6.13246 106H73.2612C76.2644 106 78.5608 103.703 78.5608 100.7V95.4006H83.8604C86.8635 95.4006 89.16 93.1042 89.16 90.101V23.0688C89.1738 22.911 89.1631 22.7561 89.1294 22.6058ZM83.1538 21.2056H69.7281C68.6682 21.2056 67.9617 20.499 67.9617 19.4391V6.01341L83.1538 21.2056ZM75.0277 100.7C75.0277 101.76 74.3212 102.467 73.2612 102.467H6.13225C5.07233 102.467 4.36579 101.76 4.36579 100.7V15.906C4.36579 15.0227 5.07233 14.1396 6.13225 14.1396H11.2552H11.4318V90.101C11.4318 93.1042 13.7282 95.4006 16.7314 95.4006H75.0275V100.7H75.0277ZM85.6268 90.101C85.6268 91.1609 84.9203 91.8675 83.8604 91.8675H76.6176H16.7316C15.6717 91.8675 14.9651 91.1609 14.9651 90.101V12.7263V5.30666C14.9651 4.42333 15.6717 3.54021 16.7316 3.54021H64.4283V19.4391C64.4283 22.4423 66.7248 24.7387 69.7279 24.7387H85.6268V90.101Z" fill="#E0E0E0"/>
<path d="M25.5642 24.7387H57.3621C58.422 24.7387 59.1285 24.0322 59.1285 22.9723C59.1285 21.9124 58.422 21.2058 57.3621 21.2058H25.5642C24.5043 21.2058 23.7978 21.9124 23.7978 22.9723C23.7978 24.0322 24.5043 24.7387 25.5642 24.7387Z" fill="#E0E0E0"/>
<path d="M23.7978 33.5714C23.7978 34.6313 24.5043 35.3378 25.5642 35.3378H78.5606C79.6205 35.3378 80.327 34.6313 80.327 33.5714C80.327 32.5115 79.6205 31.8049 78.5606 31.8049H25.5642C24.5043 31.8049 23.7978 32.5115 23.7978 33.5714Z" fill="#E0E0E0"/>
<path d="M78.5608 42.4043H25.5642C24.5043 42.4043 23.7978 43.1108 23.7978 44.1707C23.7978 45.2307 24.5043 45.9372 25.5642 45.9372H78.5606C79.6205 45.9372 80.327 45.2307 80.327 44.1707C80.327 43.1108 79.6207 42.4043 78.5608 42.4043Z" fill="#E0E0E0"/>
<path d="M78.5608 53.0034H25.5642C24.5043 53.0034 23.7978 53.71 23.7978 54.7699C23.7978 55.8298 24.5043 56.5363 25.5642 56.5363H78.5606C79.6205 56.5363 80.327 55.8298 80.327 54.7699C80.327 53.71 79.6207 53.0034 78.5608 53.0034Z" fill="#E0E0E0"/>
<path d="M78.5608 63.6028H25.5642C24.5043 63.6028 23.7978 64.3093 23.7978 65.3692C23.7978 66.4291 24.5043 67.1357 25.5642 67.1357H78.5606C79.6205 67.1357 80.327 66.4291 80.327 65.3692C80.327 64.3093 79.6207 63.6028 78.5608 63.6028Z" fill="#E0E0E0"/>
<path d="M78.5608 74.202H25.5642C24.5043 74.202 23.7978 74.9086 23.7978 75.9685C23.7978 77.0284 24.5043 77.7349 25.5642 77.7349H78.5606C79.6205 77.7349 80.327 77.0284 80.327 75.9685C80.327 74.9086 79.6207 74.202 78.5608 74.202Z" fill="#E0E0E0"/>
</svg>
