<svg width="135" height="106" viewBox="0 0 135 106" fill="none" xmlns="http://www.w3.org/2000/svg">
<path d="M126.577 50.4001C128.642 50.118 130.524 49.0754 131.85 47.4795C133.176 45.8836 133.849 43.851 133.735 41.7855C133.62 39.72 132.728 37.7727 131.234 36.3304C129.74 34.888 127.754 34.0562 125.671 34H113.581L104.514 16.8C103.705 15.2673 102.489 13.9836 100.997 13.0881C99.505 12.1926 97.7947 11.7195 96.0514 11.7201H80.1536V6.42005C80.1536 5.06214 79.6101 3.75985 78.6428 2.79966C77.6754 1.83948 76.3634 1.30005 74.9954 1.30005H60.0043C58.6363 1.30005 57.3243 1.83948 56.3569 2.79966C55.3896 3.75985 54.8461 5.06214 54.8461 6.42005V11.68H38.9685C37.2252 11.6795 35.5149 12.1526 34.0231 13.0481C32.5314 13.9436 31.315 15.2273 30.5058 16.76L21.4387 34H9.34912C7.20966 33.9757 5.14332 34.7722 3.58118 36.2234C2.01903 37.6746 1.08171 39.6685 0.964754 41.7891C0.847797 43.9097 1.56023 45.9932 2.95345 47.605C4.34666 49.2168 6.31304 50.2325 8.44241 50.4401C5.02702 55.7647 2.99193 61.8453 2.51853 68.14L2.05509 80.14C1.96161 82.4689 2.72313 84.7523 4.19812 86.5659C5.67311 88.3794 7.76126 89.5997 10.0745 90V99.58C10.0798 100.94 10.6278 102.242 11.5983 103.202C12.5689 104.161 13.883 104.7 15.2529 104.7H30.526C31.8959 104.7 33.21 104.161 34.1805 103.202C35.1511 102.242 35.699 100.94 35.7043 99.58V90.16H99.3357V99.58C99.341 100.94 99.8889 102.242 100.859 103.202C101.83 104.161 103.144 104.7 104.514 104.7H119.787C121.15 104.69 122.454 104.146 123.416 103.188C124.378 102.229 124.92 100.933 124.925 99.58V90C127.242 89.6088 129.337 88.3951 130.82 86.5849C132.303 84.7747 133.072 82.4914 132.985 80.16L132.521 68.16C132.055 61.8423 130.012 55.7389 126.577 50.4001ZM125.671 38C126.809 38 127.901 38.4489 128.706 39.2478C129.51 40.0467 129.963 41.1302 129.963 42.2601C129.963 43.3899 129.51 44.4734 128.706 45.2723C127.901 46.0712 126.809 46.52 125.671 46.52H123.656C122.054 44.6266 120.07 43.0869 117.833 42C117.833 42 117.833 42 117.833 41.9001L115.717 37.9001L125.671 38ZM58.876 6.42005C58.876 6.12301 58.9949 5.83813 59.2065 5.62809C59.4181 5.41805 59.7051 5.30005 60.0043 5.30005H74.9954C75.2947 5.30005 75.5816 5.41805 75.7933 5.62809C76.0049 5.83813 76.1237 6.12301 76.1237 6.42005V11.68H58.876V6.42005ZM34.0924 18.62C34.5567 17.7343 35.2567 16.9919 36.1164 16.4735C36.9762 15.9552 37.9626 15.6807 38.9685 15.68H96.0312C97.0371 15.6807 98.0236 15.9552 98.8833 16.4735C99.743 16.9919 100.443 17.7343 100.907 18.62L113.098 41.7001C109.189 42.9001 105.266 43.94 101.33 44.82C100.663 41.6835 98.8476 38.9039 96.2357 37.0183C93.6237 35.1327 90.4004 34.2749 87.1885 34.6106C83.9765 34.9464 81.0039 36.4518 78.845 38.8361C76.686 41.2204 75.494 44.3143 75.4991 47.52C75.4991 47.82 75.4991 48.1 75.4991 48.38C57.7998 49.292 40.075 47.1537 23.1111 42.06L21.9223 41.7201L34.0924 18.62ZM79.5491 48.14C79.5491 47.94 79.5491 47.74 79.5491 47.52C79.5498 45.3078 80.3749 43.174 81.8656 41.5295C83.3564 39.885 85.4073 38.846 87.6236 38.6126C89.8399 38.3792 92.0649 38.9679 93.8701 40.2653C95.6753 41.5628 96.9331 43.4772 97.4014 45.64C91.505 46.8193 85.544 47.6541 79.5491 48.14ZM4.99688 42.14C5.02851 41.0242 5.50013 39.9653 6.31029 39.191C7.12045 38.4168 8.2044 37.9891 9.32897 38H19.4036L17.2879 42C17.2879 42 17.2879 42 17.2879 42.1C15.0616 43.1518 13.0789 44.65 11.4648 46.5H9.44987C8.87447 46.5162 8.30169 46.4172 7.76561 46.2091C7.22953 46.001 6.74111 45.6879 6.32941 45.2886C5.91771 44.8893 5.59114 44.4118 5.36914 43.8847C5.14714 43.3575 5.03425 42.7914 5.03718 42.2201L4.99688 42.14ZM31.6342 99.58C31.6342 99.7288 31.6044 99.8761 31.5464 100.013C31.4885 100.151 31.4035 100.275 31.2966 100.379C31.1897 100.483 31.0629 100.566 30.9237 100.621C30.7845 100.676 30.6356 100.703 30.4857 100.7H15.2126C14.9114 100.7 14.6223 100.583 14.4075 100.373C14.1927 100.164 14.0693 99.8789 14.064 99.58V90.16H31.6342V99.58ZM120.936 99.58C120.93 99.8789 120.807 100.164 120.592 100.373C120.377 100.583 120.088 100.7 119.787 100.7H104.514C104.364 100.703 104.215 100.676 104.076 100.621C103.937 100.566 103.81 100.483 103.703 100.379C103.596 100.275 103.511 100.151 103.453 100.013C103.395 99.8761 103.366 99.7288 103.366 99.58V90.16H120.895L120.936 99.58ZM127.343 84.44C126.825 84.9839 126.2 85.417 125.507 85.7127C124.814 86.0085 124.068 86.1607 123.313 86.16H11.7267C10.9724 86.1607 10.226 86.0085 9.53303 85.7127C8.84009 85.417 8.21528 84.9839 7.69688 84.44C7.15243 83.9018 6.72492 83.2586 6.44074 82.55C6.15656 81.8413 6.02175 81.0824 6.04465 80.3201L6.50808 68.3201C6.98083 62.4317 8.97231 56.7633 12.2909 51.8601C14.0136 48.8694 16.7476 46.5808 20.0081 45.4001L22.023 45.9801C36.7919 50.4072 52.1327 52.671 67.5603 52.7C70.9655 52.7 74.3708 52.56 77.776 52.34H77.9573C78.1179 52.3593 78.2803 52.3593 78.4409 52.34C85.5932 51.8363 92.7023 50.8473 99.7185 49.38C99.9469 49.374 100.172 49.3266 100.383 49.24C105.26 48.2 110.129 46.9334 114.992 45.4401C118.276 46.5971 121.03 48.8906 122.749 51.9001C126.068 56.8033 128.059 62.4717 128.532 68.36L128.995 80.36C129.013 81.1157 128.875 81.8671 128.591 82.5684C128.307 83.2698 127.883 83.9065 127.343 84.44Z" fill="#E0E0E0"/>
<path d="M104.917 58.5601C103.016 58.5562 101.156 59.1132 99.5745 60.1605C97.9929 61.2077 96.7606 62.6979 96.034 64.4418C95.3074 66.1856 95.1193 68.1045 95.4937 69.9547C95.8681 71.8049 96.788 73.5028 98.1366 74.833C99.4852 76.1632 101.202 77.0655 103.068 77.4254C104.934 77.7852 106.866 77.5864 108.618 76.8542C110.371 76.1219 111.864 74.8893 112.909 73.3128C113.954 71.7363 114.504 69.8871 114.488 68.0001C114.466 65.4926 113.449 63.0946 111.657 61.3271C109.865 59.5596 107.443 58.5653 104.917 58.5601ZM104.917 73.5801C103.819 73.584 102.744 73.265 101.828 72.6635C100.912 72.062 100.196 71.2048 99.7706 70.2C99.3449 69.1952 99.2284 68.0878 99.4359 67.0174C99.6433 65.947 100.165 64.9615 100.936 64.1852C101.707 63.4089 102.692 62.8765 103.768 62.6551C104.843 62.4338 105.96 62.5334 106.979 62.9414C107.997 63.3494 108.871 64.0475 109.49 64.9478C110.109 65.8481 110.446 66.9101 110.458 68.0001C110.466 68.7283 110.329 69.451 110.054 70.1263C109.779 70.8017 109.373 71.4164 108.858 71.9351C108.343 72.4538 107.729 72.8661 107.053 73.1485C106.376 73.4308 105.65 73.5775 104.917 73.5801Z" fill="#E0E0E0"/>
<path d="M30.0826 58.5601C28.1822 58.5601 26.3247 59.1205 24.7458 60.1702C23.1668 61.2198 21.9376 62.7114 21.2141 64.4556C20.4906 66.1999 20.3055 68.1181 20.6821 69.9669C21.0588 71.8158 21.9803 73.5119 23.3297 74.8401C24.6791 76.1682 26.3956 77.0685 28.2613 77.4268C30.1271 77.785 32.058 77.5851 33.8091 76.8522C35.5602 76.1194 37.0524 74.8868 38.0965 73.3107C39.1407 71.7347 39.6896 69.8863 39.6736 68.0001C39.6523 65.4891 38.6325 63.0881 36.8361 61.3201C35.0397 59.552 32.6124 58.56 30.0826 58.5601ZM30.0826 73.5801C28.9853 73.58 27.9125 73.2577 26.9993 72.6538C26.0861 72.0498 25.3734 71.1913 24.9507 70.1861C24.5281 69.1809 24.4145 68.0742 24.6242 67.005C24.8339 65.9359 25.3576 64.9523 26.1293 64.178C26.901 63.4037 27.8863 62.8733 28.961 62.6535C30.0358 62.4338 31.152 62.5346 32.1692 62.9432C33.1864 63.3518 34.059 64.05 34.6773 64.9498C35.2956 65.8497 35.6318 66.9109 35.6438 68.0001C35.6545 68.7307 35.5184 69.4562 35.2435 70.1341C34.9685 70.8119 34.5603 71.4286 34.0425 71.9481C33.5248 72.4676 32.9079 72.8795 32.228 73.1597C31.5481 73.4399 30.8187 73.5828 30.0826 73.5801Z" fill="#E0E0E0"/>
<path d="M83.9012 60.54H51.0982C50.7831 60.5292 50.4699 60.5919 50.1837 60.7231C49.8975 60.8543 49.6463 61.0504 49.4503 61.2955C49.2543 61.5406 49.119 61.828 49.0553 62.1344C48.9915 62.4409 49.0011 62.7579 49.0833 63.06L52.7101 76.12C52.832 76.5526 53.0971 76.9319 53.4626 77.1968C53.8281 77.4616 54.2728 77.5966 54.7251 77.58H80.3146C80.7669 77.5966 81.2116 77.4616 81.5771 77.1968C81.9426 76.9319 82.2077 76.5526 82.3295 76.12L85.9564 63.06C86.0386 62.7579 86.0481 62.4409 85.9844 62.1344C85.9207 61.828 85.7853 61.5406 85.5894 61.2955C85.3934 61.0504 85.1422 60.8543 84.856 60.7231C84.5698 60.5919 84.2565 60.5292 83.9415 60.54H83.9012ZM78.743 73.58H56.2564L53.7377 64.54H81.2616L78.743 73.58Z" fill="#E0E0E0"/>
<path d="M49.9697 42.6199C50.3032 42.8424 50.6962 42.9608 51.098 42.9599C51.4299 42.9582 51.7562 42.8751 52.048 42.7181C52.3397 42.5611 52.5879 42.335 52.7704 42.0599L64.4771 24.5599C64.7144 24.1208 64.778 23.6095 64.6555 23.1263C64.5329 22.643 64.233 22.2226 63.8145 21.9473C63.396 21.6721 62.8891 21.5618 62.3929 21.6381C61.8968 21.7144 61.4473 21.9718 61.1323 22.3599L49.3652 39.8399C49.2195 40.0614 49.1195 40.3093 49.0711 40.5694C49.0226 40.8295 49.0266 41.0966 49.0828 41.3551C49.139 41.6137 49.2464 41.8586 49.3986 42.0757C49.5508 42.2928 49.7449 42.4778 49.9697 42.6199Z" fill="#E0E0E0"/>
<path d="M42.3129 35.76C42.6482 35.7616 42.9786 35.6801 43.2742 35.5229C43.5697 35.3658 43.8211 35.1379 44.0055 34.86L49.6271 26.5C49.9187 26.059 50.0231 25.5216 49.9174 25.0047C49.8118 24.4878 49.5046 24.0332 49.063 23.74C48.8434 23.5926 48.5968 23.4896 48.3371 23.4369C48.0774 23.3843 47.8099 23.383 47.5497 23.4332C47.2895 23.4833 47.0419 23.584 46.821 23.7293C46.6 23.8746 46.4102 24.0617 46.2622 24.28L40.6406 32.64C40.4356 32.941 40.3171 33.2917 40.2978 33.6546C40.2785 34.0174 40.3591 34.3786 40.5311 34.6994C40.703 35.0201 40.9597 35.2883 41.2737 35.4752C41.5876 35.6621 41.9469 35.7605 42.3129 35.76Z" fill="#E0E0E0"/>
</svg>
