<svg width="117" height="106" viewBox="0 0 117 106" fill="none" xmlns="http://www.w3.org/2000/svg">
<path d="M1.82768 47.7C6.7624 47.7 35.0913 47.7 41.1226 47.7C42.2192 47.7 42.9503 48.431 42.9503 49.5275C42.9503 50.6241 42.2192 51.3551 41.1226 51.3551H38.3811L34.7258 79.1344C34.543 80.0482 33.812 80.7793 32.8981 80.7793H10.0522C9.13837 80.7793 8.4073 80.0482 8.22454 79.1344L6.2141 64.331L4.56919 51.5379H1.82768C0.731079 51.5379 7.62939e-06 50.8069 7.62939e-06 49.7103C7.62939e-06 48.6137 0.731079 47.7 1.82768 47.7ZM23.2115 51.3551V62.3206H33.0809L34.543 51.3551H23.2115ZM32.7154 65.9758H23.2115V76.9413H31.2532L32.7154 65.9758ZM19.5561 76.9413V65.9758H10.0522L11.5143 76.9413H19.5561ZM9.68667 62.3206H19.5561V51.3551H8.22454L9.68667 62.3206Z" fill="#E0E0E0"/>
<path d="M63.2384 73.8345C64.8833 64.6966 71.2802 57.2035 79.6875 53.731V45.8724H69.087C67.0765 45.8724 65.2489 45.1414 63.7867 43.8621L49.5309 30.7035C46.4238 27.7793 46.2411 22.8448 48.9826 19.7379C51.9068 16.631 56.6588 16.2655 59.9486 19.1897L72.0112 30.1552C72.194 30.1552 91.9329 30.1552 92.1157 30.1552C99.0608 30.1552 104.727 35.8207 104.727 42.7655V56.1069C107.103 57.7517 109.296 59.7621 110.941 61.9552L113.317 30.8862C113.317 29.7897 114.231 29.0586 115.327 29.2414C116.424 29.2414 117.155 30.1552 116.972 31.2517L114.413 67.6207C116.058 71.0931 116.972 74.931 116.972 78.9517C116.972 93.9379 104.727 106 89.9224 106C86.0843 106 82.6118 105.269 79.3219 103.807H55.3794C52.6379 104.538 49.8964 103.807 48.0687 102.162C44.9617 99.2379 44.5961 94.4862 47.5204 91.1966C55.745 82.0586 62.3246 74.5655 63.2384 73.8345ZM101.254 42.9483C101.254 38.0138 97.2331 33.9931 92.2984 33.9931C92.1157 33.9931 71.6457 33.9931 71.4629 33.9931C70.9146 33.9931 70.5491 33.8104 70.1836 33.4448L57.5726 21.931C55.9277 20.469 53.369 20.469 51.7241 22.1138C50.2619 23.7586 50.2619 26.3172 51.9068 27.9621L66.3455 41.1207C67.0765 41.8517 68.1731 42.2172 69.087 42.2172H81.5152C82.6118 42.2172 83.3428 42.9483 83.3428 44.0448V52.6345C85.3533 52.0862 87.5465 51.7207 89.9224 51.7207C93.9433 51.7207 97.7814 52.6345 101.254 54.2793V42.9483ZM113.317 78.769C113.317 65.7931 102.716 55.3759 89.9224 55.3759C77.1287 55.3759 66.5282 65.9759 66.5282 78.769C66.5282 91.5621 77.1287 102.162 89.9224 102.162C102.716 102.162 113.317 91.7448 113.317 78.769ZM66.711 93.0242L60.3141 100.152H73.2906C70.5491 98.1414 68.3559 95.7655 66.711 93.0242ZM50.4447 99.4207C52.0896 100.883 54.6483 100.883 56.2933 99.0552L64.8833 89.5517C63.604 86.4448 62.8729 83.1552 62.6901 79.6828L50.0792 93.5724C48.617 95.4 48.7998 97.9586 50.4447 99.4207Z" fill="#E0E0E0"/>
<path d="M27.7811 33.4449C20.4704 33.4449 14.4391 27.4138 14.4391 20.1035C14.4391 12.7931 20.4704 6.76208 27.7811 6.76208C35.0918 6.76208 41.1231 12.7931 41.1231 20.1035C41.1231 27.4138 35.0918 33.4449 27.7811 33.4449ZM27.7811 10.4173C22.4808 10.4173 18.0944 14.8035 18.0944 20.1035C18.0944 25.4035 22.4808 29.7897 27.7811 29.7897C33.0813 29.7897 37.4678 25.4035 37.4678 20.1035C37.4678 14.8035 33.0813 10.4173 27.7811 10.4173Z" fill="#E0E0E0"/>
<path d="M89.9216 24.8552C82.9764 24.8552 77.4934 19.1897 77.4934 12.4276C77.4934 5.48276 83.1592 0 89.9216 0C96.8667 0 102.35 5.66552 102.35 12.4276C102.35 19.3724 96.6839 24.8552 89.9216 24.8552ZM89.9216 3.65517C84.9868 3.65517 81.1487 7.67587 81.1487 12.4276C81.1487 17.1793 85.1696 21.2 89.9216 21.2C94.6735 21.2 98.6944 17.1793 98.6944 12.4276C98.6944 7.67587 94.6735 3.65517 89.9216 3.65517Z" fill="#E0E0E0"/>
<path d="M89.9227 68.8999C95.4057 68.8999 99.7921 73.2861 99.7921 78.7689C99.7921 84.2516 95.4057 88.6378 89.9227 88.6378C84.4397 88.6378 80.0532 84.2516 80.0532 78.7689C80.0532 73.2861 84.4397 68.8999 89.9227 68.8999ZM89.9227 85.1654C93.3953 85.1654 96.1368 82.424 96.1368 78.9516C96.1368 75.4792 93.3953 72.7378 89.9227 72.7378C86.4501 72.7378 83.7086 75.4792 83.7086 78.9516C83.5258 82.2413 86.4501 85.1654 89.9227 85.1654Z" fill="#E0E0E0"/>
</svg>
