<svg width="14" height="6" viewBox="0 0 14 6" fill="none" xmlns="http://www.w3.org/2000/svg">
<g clip-path="url(#clip0)">
<path d="M1.80948 5.78559C1.7653 5.72089 1.74509 5.64823 1.75101 5.57543C1.75693 5.50264 1.78876 5.43244 1.84308 5.37238L6.56833 0.172211C6.61665 0.119074 6.68115 0.0756505 6.75631 0.0456588C6.83147 0.0156667 6.91506 7.10035e-07 6.9999 7.06326e-07C7.08475 7.02618e-07 7.16833 0.0156667 7.24349 0.0456588C7.31865 0.0756504 7.38315 0.119074 7.43147 0.172211L12.1567 5.37238C12.2112 5.43239 12.2431 5.50262 12.249 5.57546C12.2549 5.6483 12.2345 5.72098 12.19 5.78562C12.1456 5.85026 12.0788 5.90441 11.9968 5.9422C11.9149 5.97999 11.8209 5.99998 11.7251 6L2.27465 6C2.17882 6.00001 2.0848 5.98004 2.0028 5.94224C1.9208 5.90445 1.85395 5.85027 1.80948 5.78559Z" fill="#006FAC"/>
</g>
<defs>
<clipPath id="clip0">
<rect width="6" height="14" fill="white" transform="matrix(-4.37114e-08 -1 -1 4.37114e-08 14 6)"/>
</clipPath>
</defs>
</svg>
