<svg width="14" height="6" viewBox="0 0 14 6" fill="none" xmlns="http://www.w3.org/2000/svg">
<g clip-path="url(#clip0)">
<path d="M1.80948 0.214406C1.7653 0.279115 1.74509 0.351768 1.75101 0.424566C1.75693 0.497365 1.78876 0.567561 1.84308 0.62762L6.56833 5.82779C6.61665 5.88093 6.68115 5.92435 6.75631 5.95434C6.83147 5.98433 6.91506 6 6.9999 6C7.08475 6 7.16833 5.98433 7.24349 5.95434C7.31865 5.92435 7.38315 5.88093 7.43147 5.82779L12.1567 0.62762C12.2112 0.567608 12.2431 0.49738 12.249 0.424539C12.2549 0.351699 12.2345 0.279022 12.19 0.214379C12.1456 0.149735 12.0788 0.0955883 11.9968 0.0578006C11.9149 0.020013 11.8209 2.46154e-05 11.7251 -1.75085e-08L2.27465 -4.30603e-07C2.17882 -1.24676e-05 2.0848 0.0199614 2.0028 0.0577563C1.9208 0.0955512 1.85395 0.149725 1.80948 0.214406Z" fill="#006FAC"/>
</g>
<defs>
<clipPath id="clip0">
<rect width="6" height="14" fill="white" transform="translate(14) rotate(90)"/>
</clipPath>
</defs>
</svg>
