<svg width="4" height="6" viewBox="0 0 4 6" fill="none" xmlns="http://www.w3.org/2000/svg">
<path d="M0.142938 5.96601C0.186077 5.99126 0.234512 6.00281 0.283044 5.99942C0.331577 5.99604 0.378374 5.97785 0.418414 5.94681L3.88519 3.24667C3.92062 3.21906 3.94957 3.1822 3.96956 3.13925C3.98956 3.0963 4 3.04854 4 3.00006C4 2.95157 3.98956 2.90381 3.96956 2.86086C3.94957 2.81791 3.92062 2.78105 3.88519 2.75344L0.418414 0.0533016C0.378405 0.0221578 0.331586 0.00392053 0.283026 0.000564559C0.234466 -0.00279141 0.186015 0.0088618 0.142919 0.0342624C0.0998236 0.059663 0.0637256 0.097843 0.0385338 0.144668C0.013342 0.191494 1.64228e-05 0.24518 3.62228e-09 0.299915V5.7002C-8.01823e-06 5.75496 0.0133079 5.80868 0.0385045 5.85554C0.0637011 5.9024 0.0998171 5.9406 0.142938 5.96601Z" fill="#006FAC"/>
</svg>
