<svg width="24" height="24" viewBox="0 0 24 24" fill="none" xmlns="http://www.w3.org/2000/svg">
<path fill-rule="evenodd" clip-rule="evenodd" d="M17.3228 15.9048C18.5698 14.2971 19.1575 12.2748 18.9663 10.2492C18.7752 8.22367 17.8195 6.34701 16.2938 5.00104C14.768 3.65507 12.7869 2.9409 10.7533 3.00383C8.71966 3.06676 6.78641 3.90205 5.34682 5.33978C3.90598 6.77851 3.06795 8.7125 3.00352 10.7476C2.93909 12.7828 3.6531 14.7659 5.00005 16.2929C6.347 17.8199 8.22552 18.7758 10.2528 18.9659C12.2801 19.1559 14.3035 18.5658 15.9108 17.3158L15.9538 17.3608L20.1958 21.6038C20.2887 21.6967 20.399 21.7704 20.5204 21.8207C20.6418 21.871 20.7719 21.8968 20.9033 21.8968C21.0347 21.8968 21.1648 21.871 21.2862 21.8207C21.4076 21.7704 21.5179 21.6967 21.6108 21.6038C21.7037 21.5109 21.7774 21.4006 21.8277 21.2792C21.878 21.1578 21.9039 21.0277 21.9039 20.8963C21.9039 20.7649 21.878 20.6348 21.8277 20.5134C21.7774 20.392 21.7037 20.2817 21.6108 20.1888L17.3678 15.9468C17.3532 15.9324 17.3382 15.9184 17.3228 15.9048ZM15.2468 6.75478C15.8114 7.31026 16.2605 7.97203 16.568 8.70192C16.8756 9.43181 17.0356 10.2154 17.0388 11.0074C17.0421 11.7994 16.8884 12.5843 16.5868 13.3166C16.2852 14.049 15.8416 14.7144 15.2815 15.2745C14.7215 15.8345 14.0561 16.2782 13.3237 16.5798C12.5913 16.8814 11.8065 17.035 11.0144 17.0318C10.2224 17.0286 9.43885 16.8686 8.70896 16.561C7.97907 16.2534 7.3173 15.8044 6.76182 15.2398C5.65174 14.1115 5.03248 12.5902 5.03892 11.0074C5.04537 9.42458 5.677 7.90843 6.79623 6.78919C7.91547 5.66996 9.43162 5.03833 11.0144 5.03188C12.5973 5.02544 14.1185 5.6447 15.2468 6.75478Z" fill="#006FAC"/>
</svg>
