<svg width="64" height="64" viewBox="0 0 64 64" fill="none" xmlns="http://www.w3.org/2000/svg">
<path d="M54.3992 33.4609V15.3605C54.3977 14.0031 53.8577 12.7017 52.8979 11.7418C51.938 10.782 50.6366 10.2421 49.2792 10.2405H46.0792V7.03995C46.0792 6.02152 45.6746 5.0448 44.9545 4.32466C44.2344 3.60452 43.2576 3.19995 42.2392 3.19995C41.2208 3.19995 40.2441 3.60452 39.5239 4.32466C38.8038 5.0448 38.3992 6.02152 38.3992 7.03995V10.2405H19.1992V7.03995C19.1992 6.02152 18.7946 5.0448 18.0745 4.32466C17.3544 3.60452 16.3776 3.19995 15.3592 3.19995C14.3408 3.19995 13.3641 3.60452 12.6439 4.32466C11.9238 5.0448 11.5192 6.02152 11.5192 7.03995V10.2405H8.31922C6.96179 10.2421 5.66041 10.782 4.70056 11.7418C3.74071 12.7017 3.20078 14.0031 3.19922 15.3605V49.2801C3.20078 50.6376 3.74071 51.9389 4.70056 52.8988C5.66041 53.8586 6.96179 54.3985 8.31922 54.4001H33.4598C34.7197 56.1963 36.3576 57.695 38.2584 58.7908C40.1592 59.8867 42.2768 60.5532 44.4626 60.7435C46.6484 60.9339 48.8494 60.6434 50.9109 59.8926C52.9725 59.1418 54.8448 57.9488 56.3962 56.3973C57.9477 54.8459 59.1407 52.9737 59.8916 50.9121C60.6424 48.8505 60.9329 46.6495 60.7426 44.4637C60.5523 42.278 59.8858 40.1603 58.7899 38.2595C57.6941 36.3587 56.1954 34.7208 54.3992 33.4609ZM40.9592 7.03995C40.9592 6.70047 41.0941 6.3749 41.3341 6.13485C41.5742 5.89481 41.8997 5.75995 42.2392 5.75995C42.5787 5.75995 42.9043 5.89481 43.1443 6.13485C43.3844 6.3749 43.5192 6.70047 43.5192 7.03995V14.0799C43.5192 14.4194 43.3844 14.7449 43.1443 14.985C42.9043 15.225 42.5787 15.3599 42.2392 15.3599C41.8997 15.3599 41.5742 15.225 41.3341 14.985C41.0941 14.7449 40.9592 14.4194 40.9592 14.0799V7.03995ZM14.0792 7.03995C14.0792 6.70047 14.2141 6.3749 14.4541 6.13485C14.6942 5.89481 15.0197 5.75995 15.3592 5.75995C15.6987 5.75995 16.0243 5.89481 16.2643 6.13485C16.5044 6.3749 16.6392 6.70047 16.6392 7.03995V14.0799C16.6392 14.4194 16.5044 14.7449 16.2643 14.985C16.0243 15.225 15.6987 15.3599 15.3592 15.3599C15.0197 15.3599 14.6942 15.225 14.4541 14.985C14.2141 14.7449 14.0792 14.4194 14.0792 14.0799V7.03995ZM8.31922 12.8005H11.5192V14.0799C11.5192 15.0983 11.9238 16.075 12.6439 16.7952C13.3641 17.5153 14.3408 17.9199 15.3592 17.9199C16.3776 17.9199 17.3544 17.5153 18.0745 16.7952C18.7946 16.075 19.1992 15.0983 19.1992 14.0799V12.8005H38.3992V14.0799C38.3992 15.0983 38.8038 16.075 39.5239 16.7952C40.2441 17.5153 41.2208 17.9199 42.2392 17.9199C43.2576 17.9199 44.2344 17.5153 44.9545 16.7952C45.6746 16.075 46.0792 15.0983 46.0792 14.0799V12.8005H49.2792C49.9579 12.8013 50.6086 13.0712 51.0886 13.5512C51.5685 14.0311 51.8384 14.6818 51.8392 15.3605V21.7598H5.75922V15.3605C5.76 14.6818 6.02996 14.0311 6.50989 13.5512C6.98981 13.0712 7.64051 12.8013 8.31922 12.8005ZM8.31922 51.8401C7.64051 51.8393 6.98981 51.5694 6.50989 51.0894C6.02996 50.6095 5.76 49.9588 5.75922 49.2801V24.3198H51.8392V32.0088C49.0641 30.7792 45.9818 30.4186 42.9978 30.9744C40.0138 31.5302 37.268 32.9764 35.1217 35.1226C32.9754 37.2689 31.5292 40.0147 30.9734 42.9987C30.4176 45.9826 30.7782 49.065 32.0077 51.8401H8.31922ZM45.7592 58.24C43.2909 58.24 40.8781 57.508 38.8258 56.1367C36.7735 54.7654 35.174 52.8163 34.2294 50.5359C33.2849 48.2555 33.0377 45.7462 33.5193 43.3253C34.0009 40.9045 35.1895 38.6808 36.9348 36.9355C38.6802 35.1902 40.9039 34.0016 43.3247 33.5201C45.7456 33.0385 48.2548 33.2857 50.5352 34.2303C52.8156 35.1748 54.7647 36.7744 56.136 38.8267C57.5073 40.879 58.2392 43.2919 58.2392 45.7602C58.2355 49.0689 56.9194 52.241 54.5798 54.5807C52.2401 56.9203 49.068 58.2363 45.7592 58.24Z" fill="#D9001D"/>
<path d="M55.0789 40.6306C54.9898 40.5415 54.8839 40.4707 54.7675 40.4225C54.651 40.3742 54.5262 40.3494 54.4001 40.3494C54.2741 40.3494 54.1492 40.3742 54.0328 40.4225C53.9163 40.4707 53.8105 40.5415 53.7214 40.6306L44.2183 50.1336L39.9804 45.8959C39.8913 45.8067 39.7855 45.736 39.669 45.6878C39.5526 45.6395 39.4278 45.6147 39.3017 45.6147C39.1756 45.6147 39.0508 45.6395 38.9344 45.6878C38.8179 45.736 38.7121 45.8067 38.6229 45.8959C38.5338 45.985 38.4631 46.0908 38.4149 46.2073C38.3666 46.3237 38.3418 46.4486 38.3418 46.5746C38.3418 46.7007 38.3666 46.8255 38.4149 46.9419C38.4631 47.0584 38.5338 47.1642 38.6229 47.2534L43.5395 52.1698C43.6286 52.259 43.7344 52.3297 43.8509 52.378C43.9674 52.4262 44.0922 52.4511 44.2183 52.4511C44.3443 52.4511 44.4692 52.4262 44.5856 52.378C44.7021 52.3297 44.8079 52.259 44.897 52.1698L55.0789 41.9881C55.168 41.899 55.2388 41.7931 55.287 41.6767C55.3353 41.5602 55.3601 41.4354 55.3601 41.3093C55.3601 41.1833 55.3353 41.0585 55.287 40.942C55.2388 40.8255 55.168 40.7197 55.0789 40.6306Z" fill="#D9001D"/>
</svg>
