<svg width="64" height="64" viewBox="0 0 64 64" fill="none" xmlns="http://www.w3.org/2000/svg">
<path d="M20.7077 7.79943C18.2225 10.2646 16.6279 13.4724 16.1708 16.9259C15.7137 20.3793 16.4198 23.8857 18.1795 26.9015L30.4689 47.9182C30.6243 48.184 30.8475 48.4046 31.1161 48.5579C31.3848 48.7113 31.6894 48.792 31.9995 48.792C32.3096 48.792 32.6143 48.7113 32.8829 48.5579C33.1516 48.4046 33.3748 48.184 33.5302 47.9182L45.8195 26.9015C47.7617 23.5805 48.4175 19.6734 47.6649 15.9089C46.9122 12.1443 44.8023 8.77934 41.7288 6.44133C38.6552 4.10332 34.8277 2.95191 30.96 3.20179C27.0922 3.45167 23.4483 5.08578 20.7077 7.79943ZM43.6045 25.6317L31.9995 45.4776L20.3945 25.6317C19.2145 23.6136 18.5921 21.3234 18.59 18.9915C18.5879 16.6596 19.2062 14.3683 20.3826 12.3481C21.559 10.328 23.252 8.65019 25.2913 7.48365C27.3306 6.3171 29.6443 5.70292 31.9995 5.70292C34.3547 5.70292 36.6684 6.3171 38.7078 7.48365C40.7471 8.65019 42.4401 10.328 43.6165 12.3481C44.7929 14.3683 45.4112 16.6596 45.409 18.9915C45.4069 21.3234 44.7846 23.6136 43.6045 25.6317ZM22.9827 18.9343C22.9827 20.7 23.5115 22.4261 24.5023 23.8942C25.4931 25.3624 26.9013 26.5067 28.5489 27.1824C30.1965 27.8581 32.0095 28.0349 33.7586 27.6904C35.5077 27.3459 37.1144 26.4957 38.3754 25.2471C39.6365 23.9986 40.4952 22.4078 40.8432 20.676C41.1911 18.9442 41.0125 17.1492 40.33 15.5179C39.6476 13.8866 38.4919 12.4923 37.009 11.5113C35.5262 10.5303 33.7829 10.0067 31.9995 10.0067C29.6089 10.0094 27.317 10.9509 25.6266 12.6245C23.9362 14.2982 22.9854 16.5674 22.9827 18.9343ZM38.4564 18.9343C38.4564 20.1987 38.0777 21.4348 37.3682 22.4861C36.6587 23.5374 35.6503 24.3568 34.4705 24.8407C33.2906 25.3245 31.9924 25.4511 30.7399 25.2044C29.4874 24.9578 28.3368 24.3489 27.4338 23.4548C26.5308 22.5608 25.9159 21.4217 25.6667 20.1815C25.4176 18.9414 25.5455 17.656 26.0342 16.4879C26.5229 15.3197 27.3505 14.3213 28.4123 13.6188C29.4741 12.9163 30.7225 12.5414 31.9995 12.5414C33.7114 12.5432 35.3527 13.2173 36.5632 14.4158C37.7737 15.6144 38.4546 17.2394 38.4564 18.9343ZM60.7489 58.5767C60.8044 58.7655 60.8147 58.9646 60.779 59.1581C60.7434 59.3516 60.6627 59.5342 60.5435 59.6915C60.4242 59.8488 60.2696 59.9764 60.0919 60.0644C59.9141 60.1522 59.7182 60.198 59.5195 60.1979H4.47953C4.28087 60.198 4.08493 60.1523 3.90721 60.0644C3.72949 59.9765 3.57487 59.8488 3.45559 59.6915C3.33632 59.5342 3.25566 59.3516 3.22001 59.1581C3.18435 58.9646 3.19467 58.7655 3.25016 58.5767L9.65016 36.7784C9.72771 36.515 9.88946 36.2836 10.1111 36.1189C10.3328 35.9542 10.6024 35.8651 10.8795 35.865H20.4795V38.3997H11.8402L6.18453 57.6633H57.8145L52.1589 38.3997H43.5195V35.865H53.1195C53.3967 35.8651 53.6663 35.9542 53.8879 36.1189C54.1096 36.2836 54.2714 36.515 54.3489 36.7784L60.7489 58.5767Z" fill="#D9001D"/>
</svg>
