<svg width="64" height="64" viewBox="0 0 64 64" fill="none" xmlns="http://www.w3.org/2000/svg">
<path d="M51.5 30C52.4283 30 53.3185 29.6313 53.9749 28.9749C54.6312 28.3185 55 27.4283 55 26.5V17.414L57.729 14.684L62 10.128V7.205L56.293 13.293L53.293 16.293C53.1054 16.4805 53.0001 16.7348 53 17V26.5C53 26.8978 52.842 27.2794 52.5607 27.5607C52.2794 27.842 51.8978 28 51.5 28C51.1022 28 50.7206 27.842 50.4393 27.5607C50.158 27.2794 50 26.8978 50 26.5V23C50 22.8022 49.9413 22.609 49.8314 22.4445C49.7215 22.2801 49.5654 22.152 49.3827 22.0763C49.2 22.0007 48.9989 21.9808 48.805 22.0194C48.611 22.058 48.4328 22.1532 48.293 22.293L41.9 28.684L40.7 29.884C40.5125 30.0715 40.2582 30.1768 39.993 30.1768C39.7278 30.1768 39.4735 30.0715 39.286 29.884L38.414 29L44.707 22.707L43.293 21.293L37 27.586L35.414 26L41.707 19.707L40.293 18.293L34 24.586L32.414 23L38.707 16.707L37.293 15.293L31 21.586L30.121 20.707C29.9335 20.5195 29.8282 20.2652 29.8282 20C29.8282 19.7348 29.9335 19.4805 30.121 19.293L47.414 2H44.586L28.707 17.879C28.4681 18.1223 28.2726 18.4047 28.129 18.714L25.414 16H26.5C27.4283 16 28.3185 15.6313 28.9749 14.9749C29.6313 14.3185 30 13.4283 30 12.5C30 11.5717 29.6313 10.6815 28.9749 10.0251C28.3185 9.36875 27.4283 9 26.5 9H17.414L10.414 2H7.586L16.293 10.707C16.4805 10.8945 16.7348 10.9999 17 11H26.5C26.8978 11 27.2794 11.158 27.5607 11.4393C27.842 11.7206 28 12.1022 28 12.5C28 12.8978 27.842 13.2794 27.5607 13.5607C27.2794 13.842 26.8978 14 26.5 14H23C22.8022 14 22.609 14.0587 22.4445 14.1686C22.2801 14.2785 22.152 14.4346 22.0763 14.6173C22.0007 14.8 21.9808 15.0011 22.0194 15.195C22.058 15.389 22.1532 15.5671 22.293 15.707L28.707 22.121L29.907 23.321C30.088 23.5026 30.1896 23.7486 30.1896 24.005C30.1896 24.2614 30.088 24.5074 29.907 24.689L29.007 25.589L22.714 19.296L21.3 20.71L27.586 27L26 28.586L19.707 22.293L18.293 23.707L24.586 30L23 31.586L16.707 25.293L15.293 26.707L21.586 33L20.686 33.9C20.5044 34.081 20.2584 34.1826 20.002 34.1826C19.7456 34.1826 19.4996 34.081 19.318 33.9L2 16.586V19.414L17.9 35.314C18.1361 35.5446 18.4092 35.7339 18.708 35.874L16 38.586V37.5C16 36.5717 15.6313 35.6815 14.9749 35.0251C14.3185 34.3688 13.4283 34 12.5 34C11.5717 34 10.6815 34.3688 10.0251 35.0251C9.36875 35.6815 9 36.5717 9 37.5V46.586L2 53.586V56.414L10.707 47.707C10.8945 47.5195 10.9999 47.2652 11 47V37.5C11 37.1022 11.158 36.7206 11.4393 36.4393C11.7206 36.158 12.1022 36 12.5 36C12.8978 36 13.2794 36.158 13.5607 36.4393C13.842 36.7206 14 37.1022 14 37.5V41C14 41.1978 14.0587 41.391 14.1686 41.5555C14.2785 41.7199 14.4346 41.848 14.6173 41.9237C14.8 41.9993 15.0011 42.0191 15.195 41.9806C15.389 41.942 15.5671 41.8468 15.707 41.707L22.1 35.316L23.3 34.116C23.4875 33.9285 23.7418 33.8232 24.007 33.8232C24.2722 33.8232 24.5265 33.9285 24.714 34.116L25.593 34.995L19.3 41.288L20.714 42.702L27 36.414L28.586 38L22.293 44.293L23.707 45.707L30 39.414L31.586 41L25.293 47.293L26.707 48.707L33 42.414L33.879 43.293C34.0665 43.4805 34.1718 43.7348 34.1718 44C34.1718 44.2652 34.0665 44.5195 33.879 44.707L16.586 62H19.414L35.293 46.121C35.532 45.8772 35.7272 45.5941 35.87 45.284L38.586 48H37.5C36.5717 48 35.6815 48.3688 35.0251 49.0251C34.3688 49.6815 34 50.5717 34 51.5C34 52.4283 34.3688 53.3185 35.0251 53.9749C35.6815 54.6312 36.5717 55 37.5 55H46.586L53.586 62H56.414L47.707 53.293C47.5195 53.1054 47.2652 53.0001 47 53H37.5C37.1022 53 36.7206 52.842 36.4393 52.5607C36.158 52.2794 36 51.8978 36 51.5C36 51.1022 36.158 50.7206 36.4393 50.4393C36.7206 50.158 37.1022 50 37.5 50H41C41.1978 50 41.391 49.9413 41.5555 49.8314C41.7199 49.7215 41.848 49.5654 41.9237 49.3827C41.9993 49.2 42.0191 48.9989 41.9806 48.805C41.942 48.611 41.8468 48.4328 41.707 48.293L35.293 41.879L34.093 40.679C33.912 40.4974 33.8104 40.2514 33.8104 39.995C33.8104 39.7386 33.912 39.4926 34.093 39.311L34.993 38.411L41.286 44.704L42.7 43.29L36.414 37L38 35.414L44.293 41.707L45.707 40.293L39.414 34L41 32.414L47.293 38.707L48.707 37.293L42.414 31L43.314 30.1C43.4067 30.0092 43.5165 29.9377 43.637 29.8897C43.7576 29.8417 43.8865 29.8182 44.0162 29.8205C44.146 29.8228 44.274 29.8509 44.3927 29.9032C44.5115 29.9555 44.6187 30.0309 44.708 30.125L62 46.2V43.47L46.1 28.684C45.8639 28.4534 45.5908 28.2641 45.292 28.124L48 25.414V26.5C48 27.4283 48.3688 28.3185 49.0251 28.9749C49.6815 29.6313 50.5717 30 51.5 30ZM32.684 37.9C32.4529 38.1356 32.2635 38.4089 32.124 38.708L26.124 32.708C25.8802 32.469 25.5971 32.2738 25.287 32.131L31.316 26.1C31.5471 25.8644 31.7365 25.5911 31.876 25.292L37.876 31.292C38.1198 31.531 38.4029 31.7262 38.713 31.869L32.684 37.9Z" fill="#D9001D"/>
</svg>
