<svg width="63" height="63" viewBox="0 0 63 63" fill="none" xmlns="http://www.w3.org/2000/svg">
<path d="M54.3692 52.9201C56.7632 50.4631 56.7632 47.1871 54.3692 44.7931L47.8172 38.2411C46.6832 37.0441 45.2972 36.4141 43.7852 36.4141C42.3362 36.4141 40.9502 37.0441 39.7532 38.2411L35.9732 42.0211C35.6582 41.8321 35.3432 41.7061 35.0282 41.5171C34.5872 41.3281 34.2092 41.0761 33.8312 40.8871C30.3032 38.6821 27.0902 35.7211 24.0662 32.0041C22.5542 30.1141 21.5462 28.5391 20.8532 26.9011C21.7982 26.0191 22.7432 25.0741 23.6252 24.1921C23.9402 23.8771 24.3182 23.4991 24.6332 23.1841C25.8302 21.9871 26.5232 20.5381 26.5232 19.0891C26.5232 17.6401 25.8932 16.2541 24.6332 14.9941L21.4202 11.7181C21.0422 11.3401 20.6642 10.9621 20.3492 10.5841C19.6562 9.82806 18.9002 9.07206 18.1442 8.37906C17.0102 7.24506 15.6242 6.61506 14.1752 6.61506C12.7262 6.61506 11.3402 7.24506 10.1432 8.37906L6.04825 12.4741C4.53625 13.9861 3.65425 15.8131 3.46525 17.9551C3.21325 21.4201 4.22125 24.6331 4.97725 26.7751C6.86725 31.9411 9.76525 36.7921 14.0492 41.9581C19.2782 48.1951 25.5152 53.0461 32.6342 56.5111C35.3432 57.8341 38.9972 59.3461 43.0922 59.5981C43.3442 59.5981 43.5962 59.5981 43.8482 59.5981C46.5572 59.5981 48.8882 58.5901 50.6522 56.6371L50.7152 56.5741C51.3452 55.8181 52.0382 55.1251 52.7943 54.4321C53.3612 53.9911 53.8652 53.4871 54.3692 52.9201ZM50.6522 52.2271C49.8962 52.9831 49.0772 53.7391 48.3843 54.6211C47.1872 55.9441 45.7382 56.5111 43.9112 56.5111C43.7222 56.5111 43.5332 56.5111 43.3442 56.5111C39.8162 56.1961 36.5402 54.8731 34.0202 53.6761C27.2792 50.4001 21.4202 45.8011 16.5062 39.9421C12.4742 35.0911 9.76525 30.5551 7.93825 25.7041C6.80425 22.7431 6.42625 20.4121 6.61525 18.2701C6.74125 16.8841 7.30825 15.7501 8.25325 14.7421L12.2852 10.7101C12.8522 10.1431 13.4822 9.82806 14.1122 9.82806C14.8682 9.82806 15.4982 10.2691 15.9392 10.7101C16.6952 11.4031 17.3252 12.0961 18.0812 12.8521C18.4592 13.2301 18.8372 13.6081 19.2152 13.9861L22.4282 17.1991C23.0582 17.8291 23.3732 18.4591 23.3732 19.0891C23.3732 19.7191 23.0582 20.3491 22.4282 20.9791C22.1132 21.2941 21.7352 21.6721 21.4202 21.9871C20.4122 22.9951 19.4672 23.9401 18.4592 24.8851L18.3962 24.9481C17.3882 25.9561 17.5772 26.9641 17.7662 27.5941C17.7662 27.6571 17.7662 27.6571 17.8292 27.7201C18.6482 29.7361 19.8452 31.6891 21.6722 33.9571C24.9482 37.9891 28.4132 41.1391 32.1932 43.5331C32.6972 43.8481 33.2012 44.1001 33.6422 44.3521C34.0832 44.5411 34.4612 44.7931 34.8392 44.9821C34.9022 44.9821 34.9022 45.0451 34.9652 45.0451C35.3432 45.2341 35.7212 45.3601 36.0992 45.3601C37.0442 45.3601 37.6742 44.7301 37.8632 44.5411L41.9582 40.4461C42.3362 40.0681 43.0292 39.5641 43.7852 39.5641C44.5412 39.5641 45.1082 40.0681 45.5492 40.4461L52.1012 46.9981C53.6132 48.5101 52.9202 49.8961 52.0382 50.7781C51.6602 51.2821 51.1562 51.7231 50.6522 52.2271ZM32.5082 14.8681C32.6342 13.9861 33.4532 13.4191 34.3352 13.6081C38.1152 14.2381 41.5172 16.0021 44.2262 18.7741C46.9352 21.5461 48.6992 24.9481 49.3923 28.6651C49.5182 29.5471 48.9512 30.3661 48.1322 30.4921C48.0692 30.4921 47.9432 30.4921 47.8802 30.4921C47.1242 30.4921 46.4312 29.9251 46.3052 29.1691C45.8012 26.0821 44.2892 23.1841 42.0212 20.9791C39.7532 18.7111 36.9182 17.2621 33.8312 16.6951C32.8862 16.5691 32.3192 15.7501 32.5082 14.8681ZM56.4482 28.7281C55.5032 23.1841 52.8572 18.1441 48.8882 14.1121C44.8562 10.0801 39.8162 7.49706 34.2722 6.55206C33.3902 6.42606 32.8232 5.60706 33.0122 4.72506C33.2012 3.84306 33.9572 3.27606 34.8392 3.46506C40.9502 4.47306 46.6202 7.37106 51.0932 11.8441C55.5662 16.3171 58.5272 21.9871 59.5352 28.1611C59.6612 29.0431 59.0942 29.8621 58.2752 29.9881C58.2122 29.9881 58.0862 29.9881 58.0232 29.9881C57.2672 30.0511 56.5742 29.4841 56.4482 28.7281Z" fill="#D9001D"/>
</svg>
